STARTFONT 2.1
COMMENT
COMMENT Converted from OpenType font "Q:\font stuff\winfont\Nanosecond Thin BRK.ttf" by "otf2bdf 3.0".
COMMENT
FONT -FreeType-Nanosecond Thin BRK-Medium-R-Normal--100-1000-72-72-P-327-ISO10646-1
SIZE 100 72 72
FONTBOUNDINGBOX 71 100 0 -16
STARTPROPERTIES 19
FOUNDRY "FreeType"
FAMILY_NAME "Nanosecond Thin BRK"
WEIGHT_NAME "Medium"
SLANT "R"
SETWIDTH_NAME "Normal"
ADD_STYLE_NAME ""
PIXEL_SIZE 100
POINT_SIZE 1000
RESOLUTION_X 72
RESOLUTION_Y 72
SPACING "P"
AVERAGE_WIDTH 327
CHARSET_REGISTRY "ISO10646"
CHARSET_ENCODING "1"
FONT_ASCENT 84
FONT_DESCENT 15
COPYRIGHT "ÆNIGMA FONTS   [e-mail]  kentpw@norwich.net"
_OTF_FONTFILE "Q:\font stuff\winfont\Nanosecond Thin BRK.ttf"
_OTF_PSNAME "NanosecondThinBRK"
ENDPROPERTIES
CHARS 99
STARTCHAR 0020
ENCODING 32
SWIDTH 420 0
DWIDTH 42 0
BBX 0 0 0 0
BITMAP
ENDCHAR
STARTCHAR 0021
ENCODING 33
SWIDTH 100 0
DWIDTH 10 0
BBX 5 68 3 0
BITMAP
70
F8
F8
F8
F8
F8
F8
F8
F8
F8
F8
F8
F8
F8
F8
F8
F8
F8
F8
F8
F8
F8
F8
F8
F8
F8
F8
F8
F8
F8
F8
F8
F8
F8
F8
F8
F8
F8
F8
F8
F8
F8
F8
F8
F8
F8
F8
F8
F8
F8
F8
F8
20
00
00
00
00
00
00
00
00
00
00
70
F8
F8
F8
70
ENDCHAR
STARTCHAR 0022
ENCODING 34
SWIDTH 260 0
DWIDTH 26 0
BBX 20 21 3 47
BITMAP
7000E0
F801F0
F801F0
F801F0
F801F0
F801F0
F801F0
F801F0
F801F0
F801F0
F801F0
F801F0
F801F0
F801F0
F801F0
F801F0
F801F0
F801F0
F801F0
F801F0
7000E0
ENDCHAR
STARTCHAR 0023
ENCODING 35
SWIDTH 480 0
DWIDTH 48 0
BBX 43 68 2 0
BITMAP
000E000E0000
001F001F0000
001F001F0000
001F001F0000
001F001F0000
001F001F0000
001F001F0000
001F001F0000
001F001F0000
001F001F0000
001F001F0000
001F001F0000
001F001F0000
001F001F0000
001F001F0000
003F803F8000
7FFFFFFFFFC0
FFFFFFFFFFE0
FFFFFFFFFFE0
FFFFFFFFFFE0
7FFFFFFFFFC0
003F803F8000
001F001F0000
001F001F0000
001F001F0000
001F001F0000
001F001F0000
001F001F0000
001F001F0000
001F001F0000
001F001F0000
001F001F0000
001F001F0000
001F001F0000
001F001F0000
001F001F0000
001F001F0000
001F001F0000
001F001F0000
001F001F0000
001F001F0000
001F001F0000
001F001F0000
001F001F0000
001F001F0000
001F001F0000
003F803F8000
7FFFFFFFFFC0
FFFFFFFFFFE0
FFFFFFFFFFE0
FFFFFFFFFFE0
7FFFFFFFFFC0
003F803F8000
001F001F0000
001F001F0000
001F001F0000
001F001F0000
001F001F0000
001F001F0000
001F001F0000
001F001F0000
001F001F0000
001F001F0000
001F001F0000
001F001F0000
001F001F0000
001F001F0000
000E000E0000
ENDCHAR
STARTCHAR 0024
ENCODING 36
SWIDTH 420 0
DWIDTH 42 0
BBX 36 100 3 -16
BITMAP
0000E00000
0001F00000
0001F00000
0001F00000
0001F00000
0001F00000
0001F00000
0001F00000
0001F00000
0001F00000
0001F00000
0001F00000
0001F00000
0001F00000
0001F00000
0003F80000
000FFF0000
007FFFC000
00FFFFF000
03FFFFF800
07FF0FFE00
0FF801FE00
0FE0007F00
1FC0003F80
3F80001FC0
3F00000FC0
7E000007C0
7E000007E0
7C000003E0
FC000003E0
F8000001F0
F8000001F0
F8000001F0
F8000001F0
F8000001F0
F8000001F0
F800000000
F800000000
7C00000000
7C00000000
7E00000000
3E00000000
3F00000000
1F80000000
1FC0000000
0FE0000000
07FC000000
03FFFE0000
01FFFFC000
00FFFFF000
003FFFF800
0007FFFC00
000003FE00
0000007F00
0000003F80
0000001F80
0000000FC0
00000007C0
00000007E0
00000003E0
00000003E0
00000001F0
00000001F0
70000001F0
F8000001F0
F8000001F0
F8000001F0
F8000001F0
F8000001F0
FC000003F0
7C000003E0
7C000003E0
7E000007E0
3E000007C0
3F00000FC0
1F80001F80
1FC0003F80
0FF000FF00
07FE07FE00
03FF9FFC00
01FFFFF800
00FFFFE000
003FFFC000
0007FE0000
0003F80000
0001F00000
0001F00000
0001F00000
0001F00000
0001F00000
0001F00000
0001F00000
0001F00000
0001F00000
0001F00000
0001F00000
0001F00000
0001F00000
0001F00000
0000E00000
ENDCHAR
STARTCHAR 0025
ENCODING 37
SWIDTH 420 0
DWIDTH 42 0
BBX 36 68 3 0
BITMAP
01F80000E0
07FE0001F0
0FFF8001F0
1FFFC001F0
3FFFC001F0
7F0FE001F0
7E07E003F0
FC03F003E0
F801F003E0
F801F007E0
F801F007C0
F801F007C0
F801F00FC0
FC03F00F80
7E07E01F80
7F0FE01F00
3FFFC03F00
3FFFC07E00
1FFF807E00
07FE00FC00
01F800FC00
000001F800
000003F000
000003F000
000007E000
000007E000
00000FC000
00001F8000
00001F8000
00003F0000
00007E0000
00007E0000
0000FC0000
0001F80000
0001F80000
0003F00000
0007E00000
0007E00000
000FC00000
001F800000
001F800000
003F000000
007F000000
007E000000
00FC000000
00FC000000
01F8000000
01F003F800
03F00FFE00
07E01FFF00
07E03FFF80
0FC07FFFC0
0FC0FE0FE0
1F80FC07E0
1F01F803F0
3F01F001F0
3E01F001F0
3E01F001F0
7E01F001F0
7C01F001F0
7C01F803F0
FC00FC07E0
F800FE0FE0
F8007FFFC0
F8003FFF80
F8001FFF00
F8000FFE00
700003F800
ENDCHAR
STARTCHAR 0026
ENCODING 38
SWIDTH 420 0
DWIDTH 42 0
BBX 36 100 3 -16
BITMAP
0000E00000
0001F00000
0001F00000
0001F00000
0001F00000
0001F00000
0001F00000
0001F00000
0001F00000
0001F00000
0001F00000
0001F00000
0001F00000
0001F00000
0001F00000
0003F80000
000FFF0000
003FFFC000
00FFFFF000
01FFFFF800
07FF0FFE00
07F801FE00
0FE0007F00
1FC0003F80
3F80001FC0
3F00000FC0
3E000007C0
7E000007E0
7C000003E0
7C000003E0
F8000001F0
F8000001F0
F8000001F0
F8000001F0
F8000001F0
F8000001F0
F800000000
F800000000
FC00000000
7C00000000
7C00000000
7E00000000
3F00000000
3F80000000
1FC0000000
0FE0000000
0FFC000000
07FFE00000
03FFF00000
01FFF00000
00FFF00000
03FFE00000
07FC000000
0FE0000000
1FC0000000
1F80000000
3F00000000
3E00000000
7C00000000
7C00000000
7C00000000
F800000000
F800000000
F8000000E0
F8000001F0
F8000001F0
F8000001F0
F8000001F0
F8000001F0
F8000001F0
FC000003E0
7C000003E0
7E000007E0
7E000007C0
3F00000FC0
3F80001F80
1FC0003F80
1FF801FF00
0FFF07FE00
07FF9FFC00
03FFFFF800
00FFFFE000
003FFF8000
0007FC0000
0003F80000
0001F00000
0001F00000
0001F00000
0001F00000
0001F00000
0001F00000
0001F00000
0001F00000
0001F00000
0001F00000
0001F00000
0001F00000
0001F00000
0001F00000
0000E00000
ENDCHAR
STARTCHAR 0027
ENCODING 39
SWIDTH 100 0
DWIDTH 10 0
BBX 5 21 3 47
BITMAP
70
F8
F8
F8
F8
F8
F8
F8
F8
F8
F8
F8
F8
F8
F8
F8
F8
F8
F8
F8
70
ENDCHAR
STARTCHAR 0028
ENCODING 40
SWIDTH 260 0
DWIDTH 26 0
BBX 21 68 3 0
BITMAP
0003F0
003FF8
00FFF8
01FFF8
03FFF0
07FC00
0FE000
1FC000
3F8000
3F0000
7E0000
7C0000
7C0000
FC0000
F80000
F80000
F80000
F80000
F80000
F80000
F80000
F80000
F80000
F80000
F80000
F80000
F80000
F80000
F80000
F80000
F80000
F80000
F80000
F80000
F80000
F80000
F80000
F80000
F80000
F80000
F80000
F80000
F80000
F80000
F80000
F80000
F80000
F80000
F80000
F80000
F80000
F80000
F80000
F80000
7C0000
7C0000
7C0000
7E0000
3F0000
3F8000
1FC000
0FE000
07FC00
07FFF0
01FFF8
00FFF8
003FF8
0007F0
ENDCHAR
STARTCHAR 0029
ENCODING 41
SWIDTH 260 0
DWIDTH 26 0
BBX 21 68 2 0
BITMAP
7E0000
FFE000
FFF800
FFFC00
7FFE00
01FF00
007F80
001FC0
000FE0
0007E0
0003F0
0001F0
0001F0
0001F8
0000F8
0000F8
0000F8
0000F8
0000F8
0000F8
0000F8
0000F8
0000F8
0000F8
0000F8
0000F8
0000F8
0000F8
0000F8
0000F8
0000F8
0000F8
0000F8
0000F8
0000F8
0000F8
0000F8
0000F8
0000F8
0000F8
0000F8
0000F8
0000F8
0000F8
0000F8
0000F8
0000F8
0000F8
0000F8
0000F8
0000F8
0000F8
0000F8
0000F8
0001F0
0001F0
0003F0
0003F0
0007E0
000FE0
001FC0
003F80
01FF00
7FFF00
7FFC00
FFF800
FFE000
7F0000
ENDCHAR
STARTCHAR 002A
ENCODING 42
SWIDTH 400 0
DWIDTH 40 0
BBX 35 34 3 33
BITMAP
0000E00000
0001F00000
0001F00000
0001F00000
0001F00000
0001F00000
0001F00000
0001F00000
0001F00000
0001F00000
0001F00000
7803F803C0
FF03F81FE0
FFFFFFFFE0
FFFFFFFFE0
7FFFFFFFC0
1FFFFFFF00
03FFFFF800
007FFFC000
003FFF8000
001FFF0000
001FFF0000
001FFF0000
003FFF8000
003FFF8000
007FBFC000
00FE0FE000
00FC07E000
01FC07F000
03F803F800
03F001F800
03E000F800
03E000F800
01C0007000
ENDCHAR
STARTCHAR 002B
ENCODING 43
SWIDTH 420 0
DWIDTH 42 0
BBX 37 37 2 16
BITMAP
0000700000
0000F80000
0000F80000
0000F80000
0000F80000
0000F80000
0000F80000
0000F80000
0000F80000
0000F80000
0000F80000
0000F80000
0000F80000
0000F80000
0000F80000
0001FC0000
7FFFFFFFF0
FFFFFFFFF8
FFFFFFFFF8
FFFFFFFFF8
7FFFFFFFF0
0001FC0000
0000F80000
0000F80000
0000F80000
0000F80000
0000F80000
0000F80000
0000F80000
0000F80000
0000F80000
0000F80000
0000F80000
0000F80000
0000F80000
0000F80000
0000700000
ENDCHAR
STARTCHAR 002C
ENCODING 44
SWIDTH 100 0
DWIDTH 10 0
BBX 5 21 3 -16
BITMAP
70
F8
F8
F8
F8
F8
F8
F8
F8
F8
F8
F8
F8
F8
F8
F8
F8
F8
F8
F8
70
ENDCHAR
STARTCHAR 002D
ENCODING 45
SWIDTH 420 0
DWIDTH 42 0
BBX 37 5 2 32
BITMAP
7FFFFFFFF0
7FFFFFFFF8
FFFFFFFFF8
7FFFFFFFF8
3FFFFFFFF8
ENDCHAR
STARTCHAR 002E
ENCODING 46
SWIDTH 100 0
DWIDTH 10 0
BBX 5 5 3 0
BITMAP
F0
F0
F8
F8
F0
ENDCHAR
STARTCHAR 002F
ENCODING 47
SWIDTH 420 0
DWIDTH 42 0
BBX 37 68 2 0
BITMAP
0000000070
00000000F8
00000000F8
00000000F8
00000000F8
00000000F8
00000001F8
00000001F8
00000001F0
00000003F0
00000003F0
00000003E0
00000007E0
00000007C0
0000000FC0
0000000FC0
0000001F80
0000003F00
0000003F00
0000007E00
0000007E00
000000FC00
000001FC00
000001F800
000003F000
000007F000
000007E000
00000FC000
00001FC000
00001F8000
00003F8000
00007F0000
00007E0000
0000FE0000
0001FC0000
0001F80000
0003F80000
0007F00000
0007E00000
000FE00000
001FC00000
001F800000
003F800000
003F000000
007E000000
00FE000000
00FC000000
01F8000000
01F8000000
03F0000000
07F0000000
07E0000000
0FC0000000
0FC0000000
1F80000000
1F80000000
1F00000000
3F00000000
3F00000000
7E00000000
7E00000000
7C00000000
7C00000000
7C00000000
7C00000000
FC00000000
7C00000000
3800000000
ENDCHAR
STARTCHAR 0030
ENCODING 48
SWIDTH 420 0
DWIDTH 42 0
BBX 36 68 3 0
BITMAP
0007FE0000
003FFFC000
00FFFFF000
01FFFFF800
03FFFFFC00
07FC03FE00
0FE0007F00
1FC0003F80
3F80001F80
3F00000FC0
7E000007C0
7C000003E0
7C000003E0
7C000003E0
F8000001F0
F8000001F0
F8000001F0
F8000001F0
F8000001F0
F8000001F0
F8000001F0
F8000001F0
F8000001F0
F8000001F0
F8000001F0
F8000001F0
F8000001F0
F8000001F0
F8000001F0
F8000001F0
F8000001F0
F8000001F0
F8000001F0
F8000001F0
F8000001F0
F8000001F0
F8000001F0
F8000001F0
F8000001F0
F8000001F0
F8000001F0
F8000001F0
F8000001F0
F8000001F0
F8000001F0
F8000001F0
F8000001F0
F8000001F0
F8000001F0
F8000001F0
F8000001F0
F8000001F0
F8000001F0
F8000001F0
7C000003E0
7C000003E0
7C000003E0
3E000007C0
3F00000FC0
1F00001FC0
1FC0003F80
0FE0007F00
07FC03FE00
03FFFFFC00
01FFFFF800
00FFFFF000
003FFFC000
0007FE0000
ENDCHAR
STARTCHAR 0031
ENCODING 49
SWIDTH 100 0
DWIDTH 10 0
BBX 5 68 3 0
BITMAP
70
F8
F8
F8
F8
F8
F8
F8
F8
F8
F8
F8
F8
F8
F8
F8
F8
F8
F8
F8
F8
F8
F8
F8
F8
F8
F8
F8
F8
F8
F8
F8
F8
F8
F8
F8
F8
F8
F8
F8
F8
F8
F8
F8
F8
F8
F8
F8
F8
F8
F8
F8
F8
F8
F8
F8
F8
F8
F8
F8
F8
F8
F8
F8
F8
F8
F8
70
ENDCHAR
STARTCHAR 0032
ENCODING 50
SWIDTH 420 0
DWIDTH 42 0
BBX 36 68 3 0
BITMAP
0007FE0000
003FFFC000
00FFFFF000
01FFFFF800
07FFFFFC00
0FFC03FE00
0FE0007F00
1FC0003F80
3F80000F80
3F00000FC0
7E000007C0
7C000003E0
7C000003E0
FC000003E0
F8000001F0
F8000001F0
F8000001F0
F8000001F0
F8000001F0
F8000001F0
30000001F0
00000001F0
00000003F0
00000003E0
00000003E0
00000007E0
0000000FC0
0000001FC0
0000003F80
0000007F00
000003FE00
0007FFFC00
003FFFF800
00FFFFF000
01FFFFC000
03FFFE0000
07FC000000
0FF0000000
1FC0000000
1F80000000
3F00000000
3E00000000
7E00000000
7C00000000
7C00000000
FC00000000
F800000000
F800000000
F800000000
F800000000
F800000000
F800000000
F800000000
F800000000
F800000000
F800000000
F800000000
F800000000
F800000000
F800000000
F800000000
F800000000
FC00000000
7FFFFFFFE0
7FFFFFFFF0
3FFFFFFFF0
1FFFFFFFF0
07FFFFFFE0
ENDCHAR
STARTCHAR 0033
ENCODING 51
SWIDTH 420 0
DWIDTH 42 0
BBX 36 68 3 0
BITMAP
0007FE0000
003FFFC000
00FFFFF000
01FFFFF800
07FFFFFC00
0FFC03FE00
0FE0007F00
1FC0003F80
3F80000F80
3F00000FC0
7E000007C0
7C000003E0
7C000003E0
FC000003E0
F8000001F0
F8000001F0
F8000001F0
F8000001F0
F8000001F0
F8000001F0
30000001F0
00000001F0
00000003F0
00000003E0
00000003E0
00000007E0
0000000FC0
0000001FC0
0000003F80
0000007F00
000003FF00
0000FFFE00
0001FFFC00
0001FFF000
0001FFF000
0000FFFC00
000003FE00
000000FF00
0000003F80
0000001F80
0000000FC0
00000007C0
00000007E0
00000003E0
00000003E0
00000001F0
00000001F0
70000001F0
F8000001F0
F8000001F0
F8000001F0
F8000001F0
F8000001F0
F8000001F0
FC000003F0
7C000003E0
7C000003E0
7E000007E0
3F00000FC0
3F80001FC0
1FC0003F80
0FE0007F00
0FFC03FE00
07FFFFFC00
01FFFFF800
00FFFFF000
003FFFC000
0007FE0000
ENDCHAR
STARTCHAR 0034
ENCODING 52
SWIDTH 420 0
DWIDTH 42 0
BBX 36 68 3 0
BITMAP
70000000E0
F8000001F0
F8000001F0
F8000001F0
F8000001F0
F8000001F0
F8000001F0
F8000001F0
F8000001F0
F8000001F0
F8000001F0
F8000001F0
F8000001F0
F8000001F0
F8000001F0
F8000001F0
F8000001F0
F8000001F0
F8000001F0
F8000001F0
F8000001F0
F8000001F0
F8000001F0
F8000001F0
F8000001F0
F8000001F0
F8000001F0
F8000001F0
F8000001F0
F8000001F0
FC000003F0
7FFFFFFFF0
7FFFFFFFE0
3FFFFFFFE0
1FFFFFFFE0
07FFFFFFE0
00000003F0
00000001F0
00000001F0
00000001F0
00000001F0
00000001F0
00000001F0
00000001F0
00000001F0
00000001F0
00000001F0
00000001F0
00000001F0
00000001F0
00000001F0
00000001F0
00000001F0
00000001F0
00000001F0
00000001F0
00000001F0
00000001F0
00000001F0
00000001F0
00000001F0
00000001F0
00000001F0
00000001F0
00000001F0
00000001F0
00000001F0
00000000E0
ENDCHAR
STARTCHAR 0035
ENCODING 53
SWIDTH 420 0
DWIDTH 42 0
BBX 36 68 3 0
BITMAP
07FFFFFFE0
1FFFFFFFF0
3FFFFFFFF0
7FFFFFFFF0
7FFFFFFFE0
FC00000000
F800000000
F800000000
F800000000
F800000000
F800000000
F800000000
F800000000
F800000000
F800000000
F800000000
F800000000
F800000000
F800000000
F800000000
F800000000
F800000000
F800000000
F800000000
F800000000
F800000000
F800000000
F800000000
F800000000
F800000000
FC00000000
7FFFFC0000
7FFFFF8000
3FFFFFE000
1FFFFFF800
07FFFFFC00
000003FE00
0000007F00
0000003F80
0000001FC0
0000000FC0
00000007E0
00000003E0
00000003E0
00000003E0
00000001F0
00000001F0
00000001F0
00000001F0
00000001F0
00000001F0
00000001F0
00000001F0
00000001F0
00000003E0
00000003E0
00000003E0
00000007E0
0000000FC0
0000001FC0
0000003F80
0000007F00
000003FE00
7FFFFFFC00
FFFFFFF800
FFFFFFF000
FFFFFFC000
7FFFFE0000
ENDCHAR
STARTCHAR 0036
ENCODING 54
SWIDTH 420 0
DWIDTH 42 0
BBX 36 68 3 0
BITMAP
0007FE0000
003FFFC000
00FFFFF000
01FFFFF800
03FFFFFC00
07FC03FE00
0FE0007F00
1FC0003F80
3F80001FC0
3F00000FC0
7E000007C0
7C000003E0
7C000003E0
7C000003E0
F8000001F0
F8000001F0
F8000001F0
F8000001F0
F8000001F0
F8000001F0
F800000060
F800000000
F800000000
F800000000
F800000000
F800000000
F800000000
F800000000
F800000000
F800000000
FC00000000
FFFFFC0000
7FFFFF8000
7FFFFFE000
7FFFFFF800
7FFFFFFC00
FC0003FE00
F80000FF00
F800003F80
F800001FC0
F800000FC0
F8000007E0
F8000007E0
F8000003E0
F8000003E0
F8000001F0
F8000001F0
F8000001F0
F8000001F0
F8000001F0
F8000001F0
F8000001F0
F8000001F0
F8000001F0
FC000003E0
7C000003E0
7C000003E0
7E000007E0
3F00000FC0
3F80001FC0
1FC0003F80
0FE0007F00
07FC03FE00
03FFFFFC00
01FFFFF800
00FFFFF000
003FFFC000
0007FE0000
ENDCHAR
STARTCHAR 0037
ENCODING 55
SWIDTH 420 0
DWIDTH 42 0
BBX 37 68 2 0
BITMAP
3FFFFFFF00
7FFFFFFFC0
FFFFFFFFE0
7FFFFFFFF0
3FFFFFFFF8
00000001F8
00000000F8
00000000F8
00000000F8
00000000F8
00000000F8
00000001F8
00000001F0
00000001F0
00000003F0
00000003F0
00000003E0
00000003E0
00000007E0
00000007E0
00000007C0
0000000FC0
0000000FC0
0000000F80
0000000F80
0000001F80
0000001F80
0000001F00
0000003F00
0000003F00
0000003E00
0000003E00
0000007E00
0000007E00
0000007C00
000000FC00
000000FC00
000000F800
000001F800
000001F800
000001F000
000001F000
000003F000
000003F000
000003E000
000007E000
000007E000
000007C000
000007C000
00000FC000
00000F8000
00000F8000
00001F8000
00001F8000
00001F0000
00001F0000
00003F0000
00003E0000
00003E0000
00003E0000
00007E0000
00007C0000
00007C0000
00007C0000
0000FC0000
0000FC0000
0000F80000
0000780000
ENDCHAR
STARTCHAR 0038
ENCODING 56
SWIDTH 420 0
DWIDTH 42 0
BBX 36 68 3 0
BITMAP
0007FE0000
003FFFC000
00FFFFF000
01FFFFF800
03FFFFFC00
07FC03FE00
0FE0007F00
1FC0003F80
3F80000F80
3F00000FC0
7E000007C0
7C000003E0
7C000003E0
7C000003E0
F8000001F0
F8000001F0
F8000001F0
F8000001F0
F8000001F0
F8000001F0
F8000001F0
F8000001F0
FC000003F0
7C000003E0
7E000003E0
7E000007E0
3F00000FC0
3F80001FC0
1FC0003F80
1FE0007F00
0FFC03FF00
07FFFFFE00
03FFFFFC00
01FFFFF000
00FFFFF000
03FFFFFC00
07FC03FE00
0FF000FF00
1FC0003F80
1F80001F80
3F00000FC0
3E000007C0
7E000007E0
7C000003E0
7C000003E0
F8000001F0
F8000001F0
F8000001F0
F8000001F0
F8000001F0
F8000001F0
F8000001F0
F8000001F0
F8000001F0
FC000003F0
7C000003E0
7C000003E0
7E000007E0
3F00000FC0
3F80001FC0
1FC0003F80
0FE0007F00
07FC03FE00
03FFFFFC00
01FFFFF800
00FFFFF000
003FFFC000
0007FE0000
ENDCHAR
STARTCHAR 0039
ENCODING 57
SWIDTH 420 0
DWIDTH 42 0
BBX 36 68 3 0
BITMAP
0007FE0000
003FFFC000
00FFFFF000
01FFFFF800
03FFFFFC00
0FFC03FE00
0FE0007F00
1FC0003F80
3F80000F80
3F00000FC0
7E000007C0
7C000003E0
7C000003E0
FC000003E0
F8000001F0
F8000001F0
F8000001F0
F8000001F0
F8000001F0
F8000001F0
F8000001F0
F8000001F0
FC000001F0
7C000001F0
7C000001F0
7E000001F0
3F000001F0
3F800001F0
1FC00001F0
0FF00001F0
07FC0003F0
03FFFFFFF0
01FFFFFFE0
00FFFFFFE0
003FFFFFE0
0003FFFFE0
00000003F0
00000001F0
00000001F0
00000001F0
00000001F0
00000001F0
00000001F0
00000001F0
00000001F0
00000001F0
00000001F0
00000001F0
00000001F0
00000001F0
00000001F0
00000001F0
00000001F0
00000001F0
00000001F0
00000001F0
00000001F0
00000001F0
00000001F0
00000001F0
00000001F0
00000001F0
00000001F0
00000001F0
00000001F0
00000001F0
00000001F0
00000000E0
ENDCHAR
STARTCHAR 003A
ENCODING 58
SWIDTH 100 0
DWIDTH 10 0
BBX 5 53 3 0
BITMAP
70
F8
F8
F8
70
00
00
00
00
00
00
00
00
00
00
00
00
00
00
00
00
00
00
00
00
00
00
00
00
00
00
00
00
00
00
00
00
00
00
00
00
00
00
00
00
00
00
00
70
F8
F8
F8
70
ENDCHAR
STARTCHAR 003B
ENCODING 59
SWIDTH 100 0
DWIDTH 10 0
BBX 5 69 3 -16
BITMAP
70
F8
F8
F8
70
00
00
00
00
00
00
00
00
00
00
00
00
00
00
00
00
00
00
00
00
00
00
00
00
00
00
00
00
00
00
00
00
00
00
00
00
00
00
00
00
00
00
00
70
F8
F8
F8
F8
F8
F8
F8
F8
F8
F8
F8
F8
F8
F8
F8
F8
F8
F8
F8
70
ENDCHAR
STARTCHAR 003C
ENCODING 60
SWIDTH 420 0
DWIDTH 42 0
BBX 37 36 2 16
BITMAP
00000003F0
0000003FF8
000001FFF8
000007FFF8
00001FFFF8
00007FFC00
0000FFE000
0003FF0000
0007FC0000
001FF80000
003FE00000
007FC00000
01FF000000
03FE000000
0FFC000000
7FF0000000
7FE0000000
FFC0000000
7FC0000000
7FE0000000
0FF8000000
03FC000000
01FE000000
00FF000000
003FC00000
001FE00000
000FF80000
0007FC0000
0001FF0000
0000FFE000
00003FFC00
00001FFFF0
000007FFF8
000001FFF8
0000003FF8
00000003F0
ENDCHAR
STARTCHAR 003D
ENCODING 61
SWIDTH 420 0
DWIDTH 42 0
BBX 37 26 2 21
BITMAP
3FFFFFFFF0
7FFFFFFFF8
7FFFFFFFF8
7FFFFFFFF8
7FFFFFFFF0
0000000000
0000000000
0000000000
0000000000
0000000000
0000000000
0000000000
0000000000
0000000000
0000000000
0000000000
0000000000
0000000000
0000000000
0000000000
0000000000
3FFFFFFFF0
7FFFFFFFF8
FFFFFFFFF8
7FFFFFFFF8
3FFFFFFFF0
ENDCHAR
STARTCHAR 003E
ENCODING 62
SWIDTH 420 0
DWIDTH 42 0
BBX 37 36 2 16
BITMAP
3F00000000
7FF0000000
FFFE000000
7FFF800000
3FFFE00000
00FFF80000
001FFC0000
0007FF0000
0001FF8000
00007FC000
00001FF000
00000FF800
000007FE00
000001FF00
000000FFC0
0000007FF0
0000001FF8
0000000FF8
0000000FF8
0000001FF8
0000007FC0
000000FF00
000001FE00
000007FC00
00000FF000
00001FE000
00007FC000
0001FF0000
0007FE0000
001FFC0000
00FFF00000
7FFFE00000
7FFF800000
FFFE000000
7FF0000000
3F00000000
ENDCHAR
STARTCHAR 003F
ENCODING 63
SWIDTH 420 0
DWIDTH 42 0
BBX 36 68 3 0
BITMAP
0007FE0000
003FFFC000
00FFFFF000
01FFFFF800
07FFFFFC00
0FFC03FE00
0FE0007F00
1FC0003F80
3F80001FC0
3F00000FC0
7E000007C0
7C000003E0
7C000003E0
FC000003E0
F8000001F0
F8000001F0
F8000001F0
F8000001F0
F8000001F0
F8000001F0
30000001F0
00000001F0
00000003E0
00000003E0
00000007E0
00000007E0
0000000FC0
0000001FC0
0000003F80
0000007F00
000001FF00
00000FFE00
00003FFC00
00007FF000
0000FFC000
0000FF0000
0001F80000
0001F00000
0001F00000
0001F00000
0001F00000
0001F00000
0001F00000
0001F00000
0001F00000
0001F00000
0001F00000
0001F00000
0001F00000
0001F00000
0001F00000
0000E00000
0000000000
0000000000
0000000000
0000000000
0000000000
0000000000
0000000000
0000000000
0000000000
0000000000
0000000000
0000E00000
0001F00000
0001F00000
0001F00000
0000E00000
ENDCHAR
STARTCHAR 0040
ENCODING 64
SWIDTH 730 0
DWIDTH 73 0
BBX 68 68 3 0
BITMAP
0003FFFFFFFFFE0000
001FFFFFFFFFFFC000
007FFFFFFFFFFFF000
01FFFFFFFFFFFFF800
03FFFFFFFFFFFFFC00
07FC0000000003FE00
0FF000000000007F00
1FC000000000003F80
3F8000000000001F80
3F0000000000000FC0
7E00000000000007C0
7C00000000000007E0
7C00000000000003E0
FC00000000000003E0
F800000000000001F0
F800000000000001F0
F8000000FFE00001F0
F8000001FFFC0001F0
F8000001FFFE0001F0
F8000001FFFF0001F0
F8000000FFFF8001F0
F8000000003FC001F0
F8000000000FC001F0
F80000000007E001F0
F80000000003E001F0
F80000000003F001F0
F80000000001F001F0
F80000000001F001F0
F80000000001F001F0
F80000000001F001F0
F80000000003F001F0
F8000FFFFFFFF001F0
F8003FFFFFFFE001F0
F8007FFFFFFFE001F0
F800FFFFFFFFC001F0
F800FFFFFFFFE001F0
F801F8000003F001F0
F801F0000001F001F0
F801F0000001F001F0
F801F0000001F001F0
F801F0000001F001F0
F801F0000001F001F0
F801F8000001F001F0
F800F8000001F001F0
F800FC000001F001F0
F8007E000001F001F0
F8007F800003F803F0
F8003FFFFFFFFFFFE0
F8001FFFFFFFFFFFE0
F8000FFFFFFFFFFFC0
F80007FFFFFFBFFF80
F80000FFFFFE0FFE00
F80000000000000000
F80000000000000000
7C0000000000000000
7C0000000000000000
7C0000000000000000
3E0000000000000000
3F0000000000000000
1F8000000000000000
1FC000000000000000
0FE000000000000000
07FC00000000000000
03FFFFFFFFFFE00000
01FFFFFFFFFFF00000
00FFFFFFFFFFF00000
003FFFFFFFFFF00000
0007FFFFFFFFE00000
ENDCHAR
STARTCHAR 0041
ENCODING 65
SWIDTH 420 0
DWIDTH 42 0
BBX 36 68 3 0
BITMAP
0007FE0000
003FFFC000
00FFFFF000
01FFFFF800
03FFFFFC00
07FC03FE00
0FE0007F00
1FC0003F80
3F80000F80
3F00000FC0
7E000007C0
7C000003E0
7C000003E0
7C000003E0
F8000001F0
F8000001F0
F8000001F0
F8000001F0
F8000001F0
F8000001F0
F8000001F0
F8000001F0
F8000001F0
F8000001F0
F8000001F0
F8000001F0
F8000001F0
F8000001F0
F8000001F0
F8000001F0
FC000003F0
FFFFFFFFF0
7FFFFFFFE0
7FFFFFFFC0
7FFFFFFFE0
7FFFFFFFE0
FC000003F0
F8000001F0
F8000001F0
F8000001F0
F8000001F0
F8000001F0
F8000001F0
F8000001F0
F8000001F0
F8000001F0
F8000001F0
F8000001F0
F8000001F0
F8000001F0
F8000001F0
F8000001F0
F8000001F0
F8000001F0
F8000001F0
F8000001F0
F8000001F0
F8000001F0
F8000001F0
F8000001F0
F8000001F0
F8000001F0
F8000001F0
F8000001F0
F8000001F0
F8000001F0
F8000001F0
70000000E0
ENDCHAR
STARTCHAR 0042
ENCODING 66
SWIDTH 420 0
DWIDTH 42 0
BBX 36 68 3 0
BITMAP
07FFFC0000
1FFFFFC000
3FFFFFE000
7FFFFFF800
7FFFFFFC00
FC0003FE00
F800007F00
F800003F80
F800001FC0
F800000FC0
F8000007E0
F8000003E0
F8000003E0
F8000003F0
F8000001F0
F8000001F0
F8000001F0
F8000001F0
F8000001F0
F8000001F0
F8000001F0
F8000001F0
F8000003F0
F8000003E0
F8000003E0
F8000007E0
F800000FC0
F800000FC0
F800003F80
F800007F80
FC0003FF00
FFFFFFFE00
7FFFFFFC00
7FFFFFF000
7FFFFFF000
7FFFFFF800
FC0003FE00
F80000FF00
F800003F00
F800001F80
F800000FC0
F8000007C0
F8000007E0
F8000003E0
F8000003E0
F8000001F0
F8000001F0
F8000001F0
F8000001F0
F8000001F0
F8000001F0
F8000001F0
F8000001F0
F8000001F0
F8000003F0
F8000003E0
F8000003E0
F8000007E0
F800000FC0
F800001FC0
F800003F80
F800007F00
FC0003FE00
7FFFFFFC00
7FFFFFF800
3FFFFFF000
1FFFFFC000
07FFFE0000
ENDCHAR
STARTCHAR 0043
ENCODING 67
SWIDTH 420 0
DWIDTH 42 0
BBX 36 68 3 0
BITMAP
0007FE0000
003FFFC000
00FFFFF000
01FFFFF800
03FFFFFC00
07FC03FE00
0FE0007F00
1FC0003F80
3F80001FC0
3F00000FC0
7E000007C0
7C000003E0
7C000003E0
7C000003E0
F8000001F0
F8000001F0
F8000001F0
F8000001F0
F8000001F0
F8000001F0
F800000060
F800000000
F800000000
F800000000
F800000000
F800000000
F800000000
F800000000
F800000000
F800000000
F800000000
F800000000
F800000000
F800000000
F800000000
F800000000
F800000000
F800000000
F800000000
F800000000
F800000000
F800000000
F800000000
F800000000
F800000000
F800000000
F800000000
F8000000E0
F8000001F0
F8000001F0
F8000001F0
F8000001F0
F8000001F0
F8000001F0
7C000003F0
7C000003E0
7C000003E0
3E000007E0
3F00000FC0
1F00001FC0
1FC0003F80
0FE0007F00
07FC03FF00
03FFFFFE00
01FFFFF800
00FFFFF000
003FFFC000
0007FE0000
ENDCHAR
STARTCHAR 0044
ENCODING 68
SWIDTH 420 0
DWIDTH 42 0
BBX 36 68 3 0
BITMAP
07FFFC0000
1FFFFFC000
3FFFFFE000
7FFFFFF800
7FFFFFFC00
FC0003FE00
F800007F00
F800003F80
F800001FC0
F800000FC0
F8000007E0
F8000003E0
F8000003E0
F8000003F0
F8000001F0
F8000001F0
F8000001F0
F8000001F0
F8000001F0
F8000001F0
F8000001F0
F8000001F0
F8000001F0
F8000001F0
F8000001F0
F8000001F0
F8000001F0
F8000001F0
F8000001F0
F8000001F0
F8000001F0
F8000001F0
F8000001F0
F8000001F0
F8000001F0
F8000001F0
F8000001F0
F8000001F0
F8000001F0
F8000001F0
F8000001F0
F8000001F0
F8000001F0
F8000001F0
F8000001F0
F8000001F0
F8000001F0
F8000001F0
F8000001F0
F8000001F0
F8000001F0
F8000001F0
F8000001F0
F8000001F0
F8000003E0
F8000003E0
F8000003E0
F8000007C0
F800000FC0
F800001FC0
F800003F80
F800007F00
FC0003FE00
7FFFFFFC00
7FFFFFF800
3FFFFFF000
1FFFFFC000
07FFFE0000
ENDCHAR
STARTCHAR 0045
ENCODING 69
SWIDTH 420 0
DWIDTH 42 0
BBX 37 68 3 0
BITMAP
07FFFFFFF0
1FFFFFFFF0
3FFFFFFFF8
7FFFFFFFF0
7FFFFFFFF0
FC00000000
F800000000
F800000000
F800000000
F800000000
F800000000
F800000000
F800000000
F800000000
F800000000
F800000000
F800000000
F800000000
F800000000
F800000000
F800000000
F800000000
F800000000
F800000000
F800000000
F800000000
F800000000
F800000000
F800000000
F800000000
FC00000000
FFFFF00000
7FFFF80000
7FFFF80000
7FFFF80000
7FFFF00000
FC00000000
F800000000
F800000000
F800000000
F800000000
F800000000
F800000000
F800000000
F800000000
F800000000
F800000000
F800000000
F800000000
F800000000
F800000000
F800000000
F800000000
F800000000
F800000000
F800000000
F800000000
F800000000
F800000000
F800000000
F800000000
F800000000
FC00000000
7FFFFFFFE0
7FFFFFFFF0
3FFFFFFFF8
1FFFFFFFF0
07FFFFFFF0
ENDCHAR
STARTCHAR 0046
ENCODING 70
SWIDTH 420 0
DWIDTH 42 0
BBX 37 68 3 0
BITMAP
07FFFFFFF0
1FFFFFFFF0
3FFFFFFFF8
7FFFFFFFF0
7FFFFFFFF0
FC00000000
F800000000
F800000000
F800000000
F800000000
F800000000
F800000000
F800000000
F800000000
F800000000
F800000000
F800000000
F800000000
F800000000
F800000000
F800000000
F800000000
F800000000
F800000000
F800000000
F800000000
F800000000
F800000000
F800000000
F800000000
FC00000000
FFFFF00000
7FFFF80000
7FFFF80000
7FFFF80000
7FFFF00000
FC00000000
F800000000
F800000000
F800000000
F800000000
F800000000
F800000000
F800000000
F800000000
F800000000
F800000000
F800000000
F800000000
F800000000
F800000000
F800000000
F800000000
F800000000
F800000000
F800000000
F800000000
F800000000
F800000000
F800000000
F800000000
F800000000
F800000000
F800000000
F800000000
F800000000
F800000000
7000000000
ENDCHAR
STARTCHAR 0047
ENCODING 71
SWIDTH 420 0
DWIDTH 42 0
BBX 36 68 3 0
BITMAP
0007FE0000
003FFFC000
00FFFFF000
01FFFFF800
03FFFFFC00
07FC03FE00
0FE0007F00
1FC0003F80
3F80001FC0
3F00000FC0
7E000007C0
7C000003E0
7C000003E0
7C000003E0
F8000001F0
F8000001F0
F8000001F0
F8000001F0
F8000001F0
F8000001F0
F800000060
F800000000
F800000000
F800000000
F800000000
F800000000
F800000000
F800000000
F800000000
F800000000
F800000000
F800FFFE00
F801FFFF80
F801FFFFC0
F801FFFFE0
F800FFFFE0
F8000003F0
F8000001F0
F8000001F0
F8000001F0
F8000001F0
F8000001F0
F8000001F0
F8000001F0
F8000001F0
F8000001F0
F8000001F0
F8000001F0
F8000001F0
F8000001F0
F8000001F0
F8000001F0
F8000001F0
F8000001F0
7C000001F0
7C000001F0
7C000001F0
3E000001F0
3F000001F0
1F000001F0
1FC00001F0
0FE00001F0
07FC0003F0
03FFFFFFE0
01FFFFFFE0
00FFFFFFC0
003FFFFF80
0007FFFE00
ENDCHAR
STARTCHAR 0048
ENCODING 72
SWIDTH 420 0
DWIDTH 42 0
BBX 36 68 3 0
BITMAP
70000000E0
F8000001F0
F8000001F0
F8000001F0
F8000001F0
F8000001F0
F8000001F0
F8000001F0
F8000001F0
F8000001F0
F8000001F0
F8000001F0
F8000001F0
F8000001F0
F8000001F0
F8000001F0
F8000001F0
F8000001F0
F8000001F0
F8000001F0
F8000001F0
F8000001F0
F8000001F0
F8000001F0
F8000001F0
F8000001F0
F8000001F0
F8000001F0
F8000001F0
F8000001F0
FC000003F0
FFFFFFFFF0
7FFFFFFFE0
7FFFFFFFE0
7FFFFFFFE0
7FFFFFFFE0
FC000003F0
F8000001F0
F8000001F0
F8000001F0
F8000001F0
F8000001F0
F8000001F0
F8000001F0
F8000001F0
F8000001F0
F8000001F0
F8000001F0
F8000001F0
F8000001F0
F8000001F0
F8000001F0
F8000001F0
F8000001F0
F8000001F0
F8000001F0
F8000001F0
F8000001F0
F8000001F0
F8000001F0
F8000001F0
F8000001F0
F8000001F0
F8000001F0
F8000001F0
F8000001F0
F8000001F0
70000000E0
ENDCHAR
STARTCHAR 0049
ENCODING 73
SWIDTH 420 0
DWIDTH 42 0
BBX 37 68 2 0
BITMAP
7FFF07FFF0
FFFFDFFFF8
FFFFFFFFF8
FFFFFFFFF8
7FFFFFFFF0
0001FC0000
0000F80000
0000F80000
0000F80000
0000F80000
0000F80000
0000F80000
0000F80000
0000F80000
0000F80000
0000F80000
0000F80000
0000F80000
0000F80000
0000F80000
0000F80000
0000F80000
0000F80000
0000F80000
0000F80000
0000F80000
0000F80000
0000F80000
0000F80000
0000F80000
0000F80000
0000F80000
0000F80000
0000F80000
0000F80000
0000F80000
0000F80000
0000F80000
0000F80000
0000F80000
0000F80000
0000F80000
0000F80000
0000F80000
0000F80000
0000F80000
0000F80000
0000F80000
0000F80000
0000F80000
0000F80000
0000F80000
0000F80000
0000F80000
0000F80000
0000F80000
0000F80000
0000F80000
0000F80000
0000F80000
0000F80000
0000F80000
0001FC0000
7FFFFFFFF0
FFFFFFFFF8
FFFFFFFFF8
FFFFDFFFF8
7FFF07FFF0
ENDCHAR
STARTCHAR 004A
ENCODING 74
SWIDTH 420 0
DWIDTH 42 0
BBX 37 68 2 0
BITMAP
0000000070
00000000F8
00000000F8
00000000F8
00000000F8
00000000F8
00000000F8
00000000F8
00000000F8
00000000F8
00000000F8
00000000F8
00000000F8
00000000F8
00000000F8
00000000F8
00000000F8
00000000F8
00000000F8
00000000F8
00000000F8
00000000F8
00000000F8
00000000F8
00000000F8
00000000F8
00000000F8
00000000F8
00000000F8
00000000F8
00000000F8
00000000F8
00000000F8
00000000F8
00000000F8
00000000F8
00000000F8
00000000F8
00000000F8
00000000F8
00000000F8
00000000F8
00000000F8
00000000F8
00000000F8
00000000F8
00000000F8
30000000F8
78000000F8
FC000000F8
FC000000F8
FC000000F8
7C000000F8
7C000000F8
7C000001F0
7E000001F0
7E000001F0
3F000003F0
3F000007E0
1F80000FE0
1FC0001FC0
0FF0003F80
07FE01FF80
03FFFFFF00
01FFFFFC00
007FFFF800
001FFFE000
0003FF0000
ENDCHAR
STARTCHAR 004B
ENCODING 75
SWIDTH 420 0
DWIDTH 42 0
BBX 36 68 3 0
BITMAP
70000000E0
F8000001F0
F8000001F0
F8000001F0
F8000001F0
F8000001F0
F8000001F0
F8000001F0
F8000001F0
F8000001F0
F8000001F0
F8000001F0
F8000001F0
F8000001F0
F8000001F0
F8000001F0
F8000001F0
F8000001F0
F8000001F0
F8000001F0
F8000001F0
F8000001F0
F8000003F0
F8000003E0
F8000003E0
F8000007E0
F800000FC0
F800000FC0
F800003F80
F800007F80
FC0003FF00
FFFFFFFE00
7FFFFFFC00
7FFFFFF000
7FFFFFF000
7FFFFFF800
FC0003FE00
F800007F00
F800003F00
F800001F80
F800000FC0
F8000007C0
F8000003E0
F8000003E0
F8000003E0
F8000001F0
F8000001F0
F8000001F0
F8000001F0
F8000001F0
F8000001F0
F8000001F0
F8000001F0
F8000001F0
F8000001F0
F8000001F0
F8000001F0
F8000001F0
F8000001F0
F8000001F0
F8000001F0
F8000001F0
F8000001F0
F8000001F0
F8000001F0
F8000001F0
F8000001F0
70000000E0
ENDCHAR
STARTCHAR 004C
ENCODING 76
SWIDTH 420 0
DWIDTH 42 0
BBX 37 68 3 0
BITMAP
7000000000
F800000000
F800000000
F800000000
F800000000
F800000000
F800000000
F800000000
F800000000
F800000000
F800000000
F800000000
F800000000
F800000000
F800000000
F800000000
F800000000
F800000000
F800000000
F800000000
F800000000
F800000000
F800000000
F800000000
F800000000
F800000000
F800000000
F800000000
F800000000
F800000000
F800000000
F800000000
F800000000
F800000000
F800000000
F800000000
F800000000
F800000000
F800000000
F800000000
F800000000
F800000000
F800000000
F800000000
F800000000
F800000000
F800000000
F800000000
F800000000
F800000000
F800000000
F800000000
F800000000
F800000000
F800000000
F800000000
F800000000
F800000000
F800000000
F800000000
F800000000
F800000000
FC00000000
7FFFFFFFE0
7FFFFFFFF0
3FFFFFFFF8
1FFFFFFFF0
07FFFFFFF0
ENDCHAR
STARTCHAR 004D
ENCODING 77
SWIDTH 630 0
DWIDTH 63 0
BBX 57 68 3 0
BITMAP
0007FFC1FFE00000
003FFFF7FFFC0000
00FFFFFFFFFF0000
01FFFFFFFFFFC000
03FFFFFFFFFFE000
07FC007F001FF000
0FE0003E0003F800
1FC0003E0001FC00
3F80003E0000FE00
3F00003E00007E00
3E00003E00003F00
7C00003E00001F00
7C00003E00001F00
7C00003E00001F80
F800003E00000F80
F800003E00000F80
F800003E00000F80
F800003E00000F80
F800003E00000F80
F800003E00000F80
F800003E00000F80
F800003E00000F80
F800003E00000F80
F800003E00000F80
F800003E00000F80
F800003E00000F80
F800003E00000F80
F800003E00000F80
F800003E00000F80
F800003E00000F80
F800003E00000F80
F800003E00000F80
F800003E00000F80
F800003E00000F80
F800003E00000F80
F800003E00000F80
F800003E00000F80
F800003E00000F80
F800003E00000F80
F800003E00000F80
F800003E00000F80
F800003E00000F80
F800003E00000F80
F800003E00000F80
F800003E00000F80
F800003E00000F80
F800003E00000F80
F800003E00000F80
F800003E00000F80
F800003E00000F80
F800003E00000F80
F800003E00000F80
F800003E00000F80
F800003E00000F80
F800003E00000F80
F800003E00000F80
F800003E00000F80
F800003E00000F80
F800003E00000F80
F800003E00000F80
F800003E00000F80
F800003E00000F80
F800003E00000F80
F800003E00000F80
F800003E00000F80
F800003E00000F80
F800003E00000F80
7000001C00000700
ENDCHAR
STARTCHAR 004E
ENCODING 78
SWIDTH 420 0
DWIDTH 42 0
BBX 36 68 3 0
BITMAP
0007FE0000
003FFFC000
00FFFFF000
01FFFFF800
03FFFFFC00
07FC03FE00
0FE0007F00
1FC0003F80
3F80001F80
3F00000FC0
7E000007C0
7C000003E0
7C000003E0
7C000003E0
F8000001F0
F8000001F0
F8000001F0
F8000001F0
F8000001F0
F8000001F0
F8000001F0
F8000001F0
F8000001F0
F8000001F0
F8000001F0
F8000001F0
F8000001F0
F8000001F0
F8000001F0
F8000001F0
F8000001F0
F8000001F0
F8000001F0
F8000001F0
F8000001F0
F8000001F0
F8000001F0
F8000001F0
F8000001F0
F8000001F0
F8000001F0
F8000001F0
F8000001F0
F8000001F0
F8000001F0
F8000001F0
F8000001F0
F8000001F0
F8000001F0
F8000001F0
F8000001F0
F8000001F0
F8000001F0
F8000001F0
F8000001F0
F8000001F0
F8000001F0
F8000001F0
F8000001F0
F8000001F0
F8000001F0
F8000001F0
F8000001F0
F8000001F0
F8000001F0
F8000001F0
F8000001F0
70000000E0
ENDCHAR
STARTCHAR 004F
ENCODING 79
SWIDTH 420 0
DWIDTH 42 0
BBX 36 68 3 0
BITMAP
0007FE0000
003FFFC000
00FFFFF000
01FFFFF800
03FFFFFC00
07FC03FE00
0FE0007F00
1FC0003F80
3F80001F80
3F00000FC0
7E000007C0
7C000003E0
7C000003E0
7C000003E0
F8000001F0
F8000001F0
F8000001F0
F8000001F0
F8000001F0
F8000001F0
F8000001F0
F8000001F0
F8000001F0
F8000001F0
F8000001F0
F8000001F0
F8000001F0
F8000001F0
F8000001F0
F8000001F0
F8000001F0
F8000001F0
F8000001F0
F8000001F0
F8000001F0
F8000001F0
F8000001F0
F8000001F0
F8000001F0
F8000001F0
F8000001F0
F8000001F0
F8000001F0
F8000001F0
F8000001F0
F8000001F0
F8000001F0
F8000001F0
F8000001F0
F8000001F0
F8000001F0
F8000001F0
F8000001F0
F8000001F0
7C000003E0
7C000003E0
7C000003E0
3E000007C0
3F00000FC0
1F00001FC0
1FC0003F80
0FE0007F00
07FC03FE00
03FFFFFC00
01FFFFF800
00FFFFF000
003FFFC000
0007FE0000
ENDCHAR
STARTCHAR 0050
ENCODING 80
SWIDTH 420 0
DWIDTH 42 0
BBX 36 68 3 0
BITMAP
07FFFE0000
1FFFFFC000
3FFFFFF000
7FFFFFF800
7FFFFFFC00
FC0003FE00
F800007F00
F800003F80
F800001FC0
F800000FC0
F8000007E0
F8000003E0
F8000003E0
F8000003F0
F8000001F0
F8000001F0
F8000001F0
F8000001F0
F8000001F0
F8000001F0
F8000001F0
F8000001F0
F8000003F0
F8000003E0
F8000003E0
F8000007E0
F800000FC0
F800000FC0
F800003F80
F800007F00
FC0003FE00
FFFFFFFC00
7FFFFFF800
7FFFFFF000
7FFFFFC000
7FFFFE0000
FC00000000
F800000000
F800000000
F800000000
F800000000
F800000000
F800000000
F800000000
F800000000
F800000000
F800000000
F800000000
F800000000
F800000000
F800000000
F800000000
F800000000
F800000000
F800000000
F800000000
F800000000
F800000000
F800000000
F800000000
F800000000
F800000000
F800000000
F800000000
F800000000
F800000000
F800000000
7000000000
ENDCHAR
STARTCHAR 0051
ENCODING 81
SWIDTH 420 0
DWIDTH 42 0
BBX 36 68 3 0
BITMAP
0007FE0000
003FFFC000
00FFFFF000
01FFFFF800
03FFFFFC00
07FC03FE00
0FE0007F00
1FC0003F80
3F80001F80
3F00000FC0
7E000007C0
7C000003E0
7C000003E0
7C000003E0
F8000001F0
F8000001F0
F8000001F0
F8000001F0
F8000001F0
F8000001F0
F8000001F0
F8000001F0
F8000001F0
F8000001F0
F8000001F0
F8000001F0
F8000001F0
F8000001F0
F8000001F0
F8000001F0
F8000001F0
F8000001F0
F8000001F0
F8000001F0
F8000001F0
F8000001F0
F8000001F0
F8000001F0
F8000001F0
F8000001F0
F8000001F0
F8000001F0
F8000001F0
F8000001F0
F8000001F0
F8000001F0
F8000001F0
F800E001F0
F801F001F0
F801F001F0
F801F001F0
F801F001F0
F801F001F0
F801F003F0
7C01F003E0
7C01F003E0
7E01F007E0
3E01F007E0
3F01F00FC0
3F81F01FC0
1FC1F03F80
0FE1F0FF00
0FFFFFFF00
07FFFFFE00
03FFFFFC00
00FFFFF000
007FFFE000
000E070000
ENDCHAR
STARTCHAR 0052
ENCODING 82
SWIDTH 420 0
DWIDTH 42 0
BBX 36 68 3 0
BITMAP
07FFFC0000
1FFFFFC000
3FFFFFE000
7FFFFFF800
7FFFFFFC00
FC0003FE00
F800007F00
F800003F80
F800001FC0
F800000FC0
F8000007E0
F8000003E0
F8000003E0
F8000003F0
F8000001F0
F8000001F0
F8000001F0
F8000001F0
F8000001F0
F8000001F0
F8000001F0
F8000001F0
F8000003F0
F8000003E0
F8000003E0
F8000007E0
F800000FC0
F800000FC0
F800003F80
F800007F80
FC0003FF00
FFFFFFFE00
7FFFFFFC00
7FFFFFF000
7FFFFFF000
7FFFFFF800
FC0003FE00
F800007F00
F800003F00
F800001F80
F800000FC0
F8000007C0
F8000003E0
F8000003E0
F8000003E0
F8000001F0
F8000001F0
F8000001F0
F8000001F0
F8000001F0
F8000001F0
F8000001F0
F8000001F0
F8000001F0
F8000001F0
F8000001F0
F8000001F0
F8000001F0
F8000001F0
F8000001F0
F8000001F0
F8000001F0
F8000001F0
F8000001F0
F8000001F0
F8000001F0
F8000001F0
70000000E0
ENDCHAR
STARTCHAR 0053
ENCODING 83
SWIDTH 420 0
DWIDTH 42 0
BBX 36 68 3 0
BITMAP
0007FE0000
003FFFC000
00FFFFF000
01FFFFF800
07FFFFFC00
07FC03FE00
0FE0007F00
1FC0003F80
3F80001FC0
3F00000FC0
7E000007C0
7C000003E0
7C000003E0
FC000003E0
F8000001F0
F8000001F0
F8000001F0
F8000001F0
F8000001F0
F8000001F0
F800000060
F800000000
7C00000000
7C00000000
7E00000000
7E00000000
3F00000000
3F80000000
1FC0000000
0FE0000000
07FC000000
03FFFE0000
01FFFFC000
00FFFFF000
003FFFF800
0007FFFC00
000003FE00
0000007F00
0000003F80
0000001F80
0000000FC0
00000007C0
00000007E0
00000003E0
00000003E0
00000001F0
00000001F0
70000001F0
F8000001F0
F8000001F0
F8000001F0
F8000001F0
F8000001F0
F8000001F0
7C000003E0
7C000003E0
7C000007E0
7E000007C0
3F00000FC0
3F00001F80
1FC0003F80
0FE0007F00
0FFC03FE00
07FFFFFC00
01FFFFF800
00FFFFF000
003FFFC000
0007FE0000
ENDCHAR
STARTCHAR 0054
ENCODING 84
SWIDTH 420 0
DWIDTH 42 0
BBX 37 68 2 0
BITMAP
7FFF07FFF0
FFFFDFFFF8
FFFFFFFFF8
FFFFFFFFF8
7FFFFFFFF0
0001FC0000
0000F80000
0000F80000
0000F80000
0000F80000
0000F80000
0000F80000
0000F80000
0000F80000
0000F80000
0000F80000
0000F80000
0000F80000
0000F80000
0000F80000
0000F80000
0000F80000
0000F80000
0000F80000
0000F80000
0000F80000
0000F80000
0000F80000
0000F80000
0000F80000
0000F80000
0000F80000
0000F80000
0000F80000
0000F80000
0000F80000
0000F80000
0000F80000
0000F80000
0000F80000
0000F80000
0000F80000
0000F80000
0000F80000
0000F80000
0000F80000
0000F80000
0000F80000
0000F80000
0000F80000
0000F80000
0000F80000
0000F80000
0000F80000
0000F80000
0000F80000
0000F80000
0000F80000
0000F80000
0000F80000
0000F80000
0000F80000
0000F80000
0000F80000
0000F80000
0000F80000
0000F80000
0000700000
ENDCHAR
STARTCHAR 0055
ENCODING 85
SWIDTH 420 0
DWIDTH 42 0
BBX 36 68 3 0
BITMAP
70000000E0
F8000001F0
F8000001F0
F8000001F0
F8000001F0
F8000001F0
F8000001F0
F8000001F0
F8000001F0
F8000001F0
F8000001F0
F8000001F0
F8000001F0
F8000001F0
F8000001F0
F8000001F0
F8000001F0
F8000001F0
F8000001F0
F8000001F0
F8000001F0
F8000001F0
F8000001F0
F8000001F0
F8000001F0
F8000001F0
F8000001F0
F8000001F0
F8000001F0
F8000001F0
F8000001F0
F8000001F0
F8000001F0
F8000001F0
F8000001F0
F8000001F0
F8000001F0
F8000001F0
F8000001F0
F8000001F0
F8000001F0
F8000001F0
F8000001F0
F8000001F0
F8000001F0
F8000001F0
F8000001F0
F8000001F0
F8000001F0
F8000001F0
F8000001F0
F8000001F0
F8000001F0
F8000001F0
7C000003E0
7C000003E0
7C000003E0
3E000007C0
3F00000FC0
1F00001FC0
1FC0003F80
0FE0007F00
07FC03FE00
03FFFFFC00
01FFFFF800
00FFFFF000
003FFFC000
0007FE0000
ENDCHAR
STARTCHAR 0056
ENCODING 86
SWIDTH 420 0
DWIDTH 42 0
BBX 36 68 3 0
BITMAP
70000000E0
F8000001F0
F8000001F0
F8000001F0
F8000001F0
F8000001F0
F8000001F0
F8000001F0
F8000001F0
F8000001F0
F8000001F0
F8000001F0
F8000001F0
F8000001F0
F8000001F0
F8000001F0
F8000001F0
F8000001F0
F8000001F0
F8000001F0
F8000001F0
F8000001F0
F8000001F0
F8000001F0
F8000001F0
F8000001F0
F8000001F0
F8000001F0
F8000001F0
F8000001F0
F8000001F0
F8000001F0
F8000001F0
F8000001F0
F8000001F0
F8000001F0
F8000001F0
F8000001F0
F8000001F0
F8000001F0
F8000001F0
F8000003F0
7C000003E0
7C000003E0
7C000003E0
7C000003E0
7E000007E0
3E000007C0
3E000007C0
3F00000FC0
1F00000F80
1F80001F80
0F80001F00
0FC0003F00
07E0007E00
07F000FE00
03F801FC00
01FC03F800
00FE07F000
007F0FE000
003FDFC000
001FFF8000
000FFF0000
0007FE0000
0001F80000
0001F80000
0000F00000
0000F00000
ENDCHAR
STARTCHAR 0057
ENCODING 87
SWIDTH 630 0
DWIDTH 63 0
BBX 57 68 3 0
BITMAP
7000001C00000700
F800003E00000F80
F800003E00000F80
F800003E00000F80
F800003E00000F80
F800003E00000F80
F800003E00000F80
F800003E00000F80
F800003E00000F80
F800003E00000F80
F800003E00000F80
F800003E00000F80
F800003E00000F80
F800003E00000F80
F800003E00000F80
F800003E00000F80
F800003E00000F80
F800003E00000F80
F800003E00000F80
F800003E00000F80
F800003E00000F80
F800003E00000F80
F800003E00000F80
F800003E00000F80
F800003E00000F80
F800003E00000F80
F800003E00000F80
F800003E00000F80
F800003E00000F80
F800003E00000F80
F800003E00000F80
F800003E00000F80
F800003E00000F80
F800003E00000F80
F800003E00000F80
F800003E00000F80
F800003E00000F80
F800003E00000F80
F800003E00000F80
F800003E00000F80
F800003E00000F80
F800003E00000F80
F800003E00000F80
F800003E00000F80
F800003E00000F80
F800003E00000F80
F800003E00000F80
F800003E00000F80
F800003E00000F80
F800003E00000F80
F800003E00000F80
F800003E00000F80
F800003E00000F80
F800003E00000F80
7C00003E00001F80
7C00003E00001F00
7C00003E00001F00
7E00003E00003F00
3F00003E00007E00
3F80003E0000FE00
1FC0003E0001FC00
0FE0003E0003F800
07FC007F001FF000
03FFFFFFFFFFE000
01FFFFFFFFFFC000
00FFFFFFFFFF8000
003FFFF7FFFE0000
0007FFC1FFE00000
ENDCHAR
STARTCHAR 0058
ENCODING 88
SWIDTH 420 0
DWIDTH 42 0
BBX 36 68 3 0
BITMAP
70000000E0
F8000001F0
F8000001F0
F8000001F0
F8000001F0
F8000001F0
F8000001F0
F8000001F0
F8000001F0
F8000001F0
F8000001F0
F8000001F0
F8000001F0
F8000001F0
F8000001F0
F8000001F0
F8000001F0
F8000001F0
F8000001F0
F8000001F0
F8000001F0
F8000001F0
FC000003F0
7C000003E0
7E000003E0
7E000007E0
3F00000FC0
3F80001FC0
1FC0003F80
1FE0007F00
0FFC03FF00
07FFFFFE00
03FFFFFC00
01FFFFF000
00FFFFF000
03FFFFFC00
07FC03FE00
0FF000FF00
0FC0003F00
1F80001F80
3F00000FC0
3E000007C0
7E000007E0
7C000003E0
7C000003E0
F8000001F0
F8000001F0
F8000001F0
F8000001F0
F8000001F0
F8000001F0
F8000001F0
F8000001F0
F8000001F0
F8000001F0
F8000001F0
F8000001F0
F8000001F0
F8000001F0
F8000001F0
F8000001F0
F8000001F0
F8000001F0
F8000001F0
F8000001F0
F8000001F0
F8000001F0
70000000E0
ENDCHAR
STARTCHAR 0059
ENCODING 89
SWIDTH 420 0
DWIDTH 42 0
BBX 36 68 3 0
BITMAP
70000000E0
F8000001F0
F8000001F0
F8000001F0
F8000001F0
F8000001F0
F8000001F0
F8000001F0
F8000001F0
F8000001F0
F8000001F0
F8000001F0
F8000001F0
F8000001F0
F8000001F0
F8000001F0
F8000001F0
F8000001F0
F8000001F0
F8000001F0
F8000001F0
F8000001F0
FC000003F0
7C000003E0
7C000003E0
7E000007E0
3E00000FC0
3F00000FC0
1F80001F80
1FC0003F00
0FF000FF00
07FE07FE00
03FF9FFC00
01FFFFF000
007FFFE000
001FFF0000
0003F80000
0001F00000
0001F00000
0001F00000
0001F00000
0001F00000
0001F00000
0001F00000
0001F00000
0001F00000
0001F00000
0001F00000
0001F00000
0001F00000
0001F00000
0001F00000
0001F00000
0001F00000
0001F00000
0001F00000
0001F00000
0001F00000
0001F00000
0001F00000
0001F00000
0001F00000
0001F00000
0001F00000
0001F00000
0001F00000
0001F00000
0000E00000
ENDCHAR
STARTCHAR 005A
ENCODING 90
SWIDTH 420 0
DWIDTH 42 0
BBX 37 68 2 0
BITMAP
3FFFFFFF00
7FFFFFFFC0
FFFFFFFFE0
7FFFFFFFF0
3FFFFFFFF8
00000001F8
00000000F8
00000000F8
00000000F8
00000001F8
00000001F8
00000003F0
00000003F0
00000007E0
0000000FC0
0000000FC0
0000001F80
0000003F80
0000003F00
0000007F00
0000007E00
000000FC00
000001FC00
000001F800
000003F000
000007F000
000007E000
00000FE000
00001FC000
00001F8000
00003F8000
00007F0000
00007E0000
0000FE0000
0001FC0000
0001F80000
0003F80000
0007F00000
0007E00000
000FE00000
001FC00000
001F800000
003F800000
007F000000
007E000000
00FE000000
01FC000000
01F8000000
03F8000000
03F0000000
07E0000000
0FE0000000
0FC0000000
1FC0000000
1F80000000
3F00000000
3F00000000
7E00000000
7E00000000
7C00000000
FC00000000
7C00000000
7E00000000
7FFFFFFFF0
3FFFFFFFF8
3FFFFFFFF8
0FFFFFFFF8
07FFFFFFF0
ENDCHAR
STARTCHAR 005B
ENCODING 91
SWIDTH 260 0
DWIDTH 26 0
BBX 21 68 3 0
BITMAP
07FFF0
1FFFF8
3FFFF8
7FFFF8
7FFFF0
FC0000
F80000
F80000
F80000
F80000
F80000
F80000
F80000
F80000
F80000
F80000
F80000
F80000
F80000
F80000
F80000
F80000
F80000
F80000
F80000
F80000
F80000
F80000
F80000
F80000
F80000
F80000
F80000
F80000
F80000
F80000
F80000
F80000
F80000
F80000
F80000
F80000
F80000
F80000
F80000
F80000
F80000
F80000
F80000
F80000
F80000
F80000
F80000
F80000
F80000
F80000
F80000
F80000
F80000
F80000
F80000
F80000
FC0000
7FFFF0
7FFFF8
3FFFF8
1FFFF8
07FFF0
ENDCHAR
STARTCHAR 005C
ENCODING 92
SWIDTH 420 0
DWIDTH 42 0
BBX 37 68 2 0
BITMAP
3800000000
7C00000000
7C00000000
FC00000000
7C00000000
7C00000000
7C00000000
7E00000000
7E00000000
3E00000000
3F00000000
3F00000000
1F80000000
1F80000000
0FC0000000
0FC0000000
07E0000000
07E0000000
03F0000000
03F8000000
01F8000000
00FC000000
00FE000000
007E000000
003F000000
003F000000
001F800000
001FC00000
000FC00000
0007E00000
0007F00000
0003F80000
0001F80000
0001FC0000
0000FC0000
00007E0000
00007F0000
00003F0000
00001F8000
00001FC000
00000FC000
000007E000
000007F000
000003F000
000001F800
000001FC00
000000FC00
0000007E00
0000007E00
0000003F00
0000003F00
0000001F80
0000001F80
0000000FC0
00000007C0
00000007E0
00000003E0
00000003F0
00000003F0
00000001F0
00000001F8
00000001F8
00000000F8
00000000F8
00000000F8
00000000F8
00000000F8
0000000070
ENDCHAR
STARTCHAR 005D
ENCODING 93
SWIDTH 260 0
DWIDTH 26 0
BBX 21 68 2 0
BITMAP
7FFF00
FFFFC0
FFFFE0
FFFFF0
7FFFF0
0001F8
0000F8
0000F8
0000F8
0000F8
0000F8
0000F8
0000F8
0000F8
0000F8
0000F8
0000F8
0000F8
0000F8
0000F8
0000F8
0000F8
0000F8
0000F8
0000F8
0000F8
0000F8
0000F8
0000F8
0000F8
0000F8
0000F8
0000F8
0000F8
0000F8
0000F8
0000F8
0000F8
0000F8
0000F8
0000F8
0000F8
0000F8
0000F8
0000F8
0000F8
0000F8
0000F8
0000F8
0000F8
0000F8
0000F8
0000F8
0000F8
0000F8
0000F8
0000F8
0000F8
0000F8
0000F8
0000F8
0000F8
0001F8
7FFFF0
7FFFF0
FFFFE0
FFFFC0
7FFF00
ENDCHAR
STARTCHAR 005E
ENCODING 94
SWIDTH 420 0
DWIDTH 42 0
BBX 37 21 2 47
BITMAP
0000780000
0000780000
0000FC0000
0001FE0000
0007FF8000
001FFFE000
007FFFF800
00FFFFFC00
03FF87FF00
07FE01FF80
0FF8007FC0
1FE0001FE0
3F80000FF0
3F000003F0
7E000001F8
7C000001F8
7C000000F8
7C000000F8
FC000000F8
7C000000F8
3800000078
ENDCHAR
STARTCHAR 005F
ENCODING 95
SWIDTH 420 0
DWIDTH 42 0
BBX 36 5 3 -16
BITMAP
FFFFFFFFE0
FFFFFFFFF0
FFFFFFFFF0
FFFFFFFFF0
FFFFFFFFE0
ENDCHAR
STARTCHAR 0060
ENCODING 96
SWIDTH 100 0
DWIDTH 10 0
BBX 5 21 3 47
BITMAP
70
F8
F8
F8
F8
F8
F8
F8
F8
F8
F8
F8
F8
F8
F8
F8
F8
F8
F8
F8
70
ENDCHAR
STARTCHAR 0061
ENCODING 97
SWIDTH 420 0
DWIDTH 42 0
BBX 37 37 2 0
BITMAP
00007FF000
0000FFFE00
0000FFFF00
0000FFFF80
00007FFFC0
0000001FE0
00000007E0
00000003F0
00000001F0
00000001F8
00000000F8
00000000F8
00000000F8
00000000F8
00000000F8
00000001F8
07FFFFFFF0
0FFFFFFFF0
3FFFFFFFE0
3FFFFFFFF0
7FFFFFFFF0
7E000001F8
7C000000F8
FC000000F8
FC000000F8
FC000000F8
7C000000F8
7C000000F8
7E000000F8
7F000000F8
3F800000F8
1FC00001F8
1FFFFFFFF0
0FFFFFFFF0
07FFFFFFE0
01FFFFFFC0
007FFFFF00
ENDCHAR
STARTCHAR 0062
ENCODING 98
SWIDTH 420 0
DWIDTH 42 0
BBX 36 68 3 0
BITMAP
7000000000
F800000000
F800000000
F800000000
F800000000
F800000000
F800000000
F800000000
F800000000
F800000000
F800000000
F800000000
F800000000
F800000000
F800000000
F800000000
F800000000
F800000000
F800000000
F800000000
F800000000
F800000000
F800000000
F800000000
F800000000
F800000000
F800000000
F800000000
F800000000
F800000000
FC00000000
FFFFFC0000
7FFFFF8000
7FFFFFE000
7FFFFFF800
7FFFFFFC00
FC0003FE00
F80000FF00
F800003F80
F800001FC0
F800000FC0
F8000007E0
F8000007E0
F8000003E0
F8000003E0
F8000001F0
F8000001F0
F8000001F0
F8000001F0
F8000001F0
F8000001F0
F8000001F0
F8000001F0
F8000001F0
F8000003E0
F8000003E0
F8000003E0
F8000007E0
F800000FC0
F800001FC0
F800003F80
F800007F00
FC0003FE00
7FFFFFFC00
7FFFFFF800
3FFFFFF000
1FFFFFC000
07FFFE0000
ENDCHAR
STARTCHAR 0063
ENCODING 99
SWIDTH 420 0
DWIDTH 42 0
BBX 37 37 3 0
BITMAP
0003FFFFF0
003FFFFFF0
00FFFFFFF8
01FFFFFFF0
03FFFFFFF0
07FC000000
0FF0000000
1FC0000000
3F80000000
3F00000000
7E00000000
7E00000000
7C00000000
FC00000000
F800000000
F800000000
F800000000
F800000000
F800000000
F800000000
F800000000
F800000000
F800000000
FC00000000
7C00000000
7C00000000
7E00000000
3F00000000
3F80000000
1FC0000000
0FE0000000
07FC000000
03FFFFFFE0
01FFFFFFF0
00FFFFFFF8
003FFFFFF0
0003FFFFF0
ENDCHAR
STARTCHAR 0064
ENCODING 100
SWIDTH 420 0
DWIDTH 42 0
BBX 36 68 3 0
BITMAP
00000000E0
00000001F0
00000001F0
00000001F0
00000001F0
00000001F0
00000001F0
00000001F0
00000001F0
00000001F0
00000001F0
00000001F0
00000001F0
00000001F0
00000001F0
00000001F0
00000001F0
00000001F0
00000001F0
00000001F0
00000001F0
00000001F0
00000001F0
00000001F0
00000001F0
00000001F0
00000001F0
00000001F0
00000001F0
00000001F0
00000003F0
0003FFFFF0
003FFFFFE0
00FFFFFFC0
01FFFFFFC0
03FFFFFFE0
07FC0003F0
0FF00001F0
1FC00001F0
3F800001F0
3F000001F0
7E000001F0
7E000001F0
7C000001F0
7C000001F0
F8000001F0
F8000001F0
F8000001F0
F8000001F0
F8000001F0
F8000001F0
F8000001F0
F8000001F0
F8000001F0
FC000001F0
7C000001F0
7C000001F0
7E000001F0
3F000001F0
3F800001F0
1FC00001F0
0FE00001F0
07FC0003F0
03FFFFFFE0
01FFFFFFE0
00FFFFFFC0
003FFFFF80
0007FFFE00
ENDCHAR
STARTCHAR 0065
ENCODING 101
SWIDTH 420 0
DWIDTH 42 0
BBX 36 37 3 0
BITMAP
007FFFE000
03FFFFF800
07FFFFFE00
0FFFFFFF00
1FFFFFFF80
3FC0003FC0
3F00000FE0
7E000007E0
7C000003E0
FC000003F0
F8000001F0
F8000001F0
F8000001F0
F8000001F0
F8000001F0
FC000003F0
7FFFFFFFE0
7FFFFFFFE0
3FFFFFFFC0
7FFFFFFF80
7FFFFFFE00
FC00000000
F800000000
F800000000
F800000000
F800000000
F800000000
FC00000000
7C00000000
7E00000000
3F00000000
3FC0000000
1FFFF00000
0FFFF80000
07FFF80000
03FFF80000
007FF00000
ENDCHAR
STARTCHAR 0066
ENCODING 102
SWIDTH 420 0
DWIDTH 42 0
BBX 37 68 3 0
BITMAP
0007FFFFF0
003FFFFFF0
00FFFFFFF8
01FFFFFFF0
07FFFFFFF0
07FC000000
0FE0000000
1FC0000000
3F80000000
3F00000000
7E00000000
7C00000000
7C00000000
7C00000000
F800000000
F800000000
F800000000
F800000000
F800000000
F800000000
F800000000
F800000000
F800000000
F800000000
F800000000
F800000000
F800000000
F800000000
F800000000
F800000000
FC00000000
FFFFF00000
7FFFF80000
7FFFF80000
7FFFF80000
7FFFF00000
FC00000000
F800000000
F800000000
F800000000
F800000000
F800000000
F800000000
F800000000
F800000000
F800000000
F800000000
F800000000
F800000000
F800000000
F800000000
F800000000
F800000000
F800000000
F800000000
F800000000
F800000000
F800000000
F800000000
F800000000
F800000000
F800000000
F800000000
F800000000
F800000000
F800000000
F800000000
7000000000
ENDCHAR
STARTCHAR 0067
ENCODING 103
SWIDTH 420 0
DWIDTH 42 0
BBX 36 53 3 -16
BITMAP
0003FFFE00
003FFFFF80
00FFFFFFC0
01FFFFFFE0
03FFFFFFE0
07FC0003F0
0FF00001F0
1FC00001F0
3F800001F0
3F000001F0
7E000001F0
7E000001F0
7C000001F0
7C000001F0
F8000001F0
F8000001F0
F8000001F0
F8000001F0
F8000001F0
F8000001F0
F8000001F0
F8000001F0
F8000001F0
FC000001F0
7C000001F0
7C000001F0
7E000001F0
3F000001F0
3F800001F0
1FC00001F0
0FE00001F0
07FC0003F0
03FFFFFFE0
01FFFFFFE0
007FFFFFC0
001FFFFFE0
0003FFFFE0
00000003F0
00000001F0
00000001F0
00000001F0
00000001F0
00000001F0
00000003F0
00000003E0
00000007E0
0000000FC0
0000003FC0
0000FFFF80
0001FFFF00
0001FFFE00
0001FFFC00
0000FFE000
ENDCHAR
STARTCHAR 0068
ENCODING 104
SWIDTH 420 0
DWIDTH 42 0
BBX 36 68 3 0
BITMAP
7000000000
F800000000
F800000000
F800000000
F800000000
F800000000
F800000000
F800000000
F800000000
F800000000
F800000000
F800000000
F800000000
F800000000
F800000000
F800000000
F800000000
F800000000
F800000000
F800000000
F800000000
F800000000
F800000000
F800000000
F800000000
F800000000
F800000000
F800000000
F800000000
F800000000
FC00000000
FFFFFC0000
7FFFFF8000
7FFFFFE000
7FFFFFF800
7FFFFFFC00
FC0003FE00
F800007F00
F800003F80
F800001FC0
F800000FC0
F8000007E0
F8000003E0
F8000003E0
F8000003E0
F8000001F0
F8000001F0
F8000001F0
F8000001F0
F8000001F0
F8000001F0
F8000001F0
F8000001F0
F8000001F0
F8000001F0
F8000001F0
F8000001F0
F8000001F0
F8000001F0
F8000001F0
F8000001F0
F8000001F0
F8000001F0
F8000001F0
F8000001F0
F8000001F0
F8000001F0
70000000E0
ENDCHAR
STARTCHAR 0069
ENCODING 105
SWIDTH 100 0
DWIDTH 10 0
BBX 5 53 3 0
BITMAP
70
F8
F8
F8
70
00
00
00
00
00
00
00
00
00
00
00
70
F8
F8
F8
F8
F8
F8
F8
F8
F8
F8
F8
F8
F8
F8
F8
F8
F8
F8
F8
F8
F8
F8
F8
F8
F8
F8
F8
F8
F8
F8
F8
F8
F8
F8
F8
70
ENDCHAR
STARTCHAR 006A
ENCODING 106
SWIDTH 260 0
DWIDTH 26 0
BBX 21 69 2 -16
BITMAP
000070
0000F8
0000F8
0000F8
000070
000000
000000
000000
000000
000000
000000
000000
000000
000000
000000
000000
000070
0000F8
0000F8
0000F8
0000F8
0000F8
0000F8
0000F8
0000F8
0000F8
0000F8
0000F8
0000F8
0000F8
0000F8
0000F8
0000F8
0000F8
0000F8
0000F8
0000F8
0000F8
0000F8
0000F8
0000F8
0000F8
0000F8
0000F8
0000F8
0000F8
0000F8
0000F8
0000F8
0000F8
0000F8
0000F8
0000F8
0000F8
0000F8
0001F0
0001F0
0003F0
0003F0
0007E0
000FE0
001FC0
007F80
01FF00
7FFE00
FFFC00
FFF800
FFE000
7E0000
ENDCHAR
STARTCHAR 006B
ENCODING 107
SWIDTH 420 0
DWIDTH 42 0
BBX 36 68 3 0
BITMAP
7000000000
F800000000
F800000000
F800000000
F800000000
F800000000
F800000000
F800000000
F800000000
F800000000
F800000000
F800000000
F800000000
F800000000
F800000000
F8000000E0
F8000001F0
F8000001F0
F8000001F0
F8000001F0
F8000001F0
F8000001F0
F8000003E0
F8000003E0
F8000003E0
F8000007C0
F800000FC0
F800001F80
F800003F80
F800007F00
FC0003FE00
FFFFFFFC00
7FFFFFF800
7FFFFFF000
7FFFFFF800
7FFFFFFC00
FC0003FE00
F800007F00
F800003F80
F800001FC0
F800000FC0
F8000007E0
F8000003E0
F8000003E0
F8000003F0
F8000001F0
F8000001F0
F8000001F0
F8000001F0
F8000001F0
F8000001F0
F8000001F0
F8000001F0
F8000001F0
F8000001F0
F8000001F0
F8000001F0
F8000001F0
F8000001F0
F8000001F0
F8000001F0
F8000001F0
F8000001F0
F8000001F0
F8000001F0
F8000001F0
F8000001F0
70000000E0
ENDCHAR
STARTCHAR 006C
ENCODING 108
SWIDTH 100 0
DWIDTH 10 0
BBX 5 68 3 0
BITMAP
70
F8
F8
F8
F8
F8
F8
F8
F8
F8
F8
F8
F8
F8
F8
F8
F8
F8
F8
F8
F8
F8
F8
F8
F8
F8
F8
F8
F8
F8
F8
F8
F8
F8
F8
F8
F8
F8
F8
F8
F8
F8
F8
F8
F8
F8
F8
F8
F8
F8
F8
F8
F8
F8
F8
F8
F8
F8
F8
F8
F8
F8
F8
F8
F8
F8
F8
70
ENDCHAR
STARTCHAR 006D
ENCODING 109
SWIDTH 630 0
DWIDTH 63 0
BBX 57 37 3 0
BITMAP
0007FFC1FFE00000
003FFFF7FFFC0000
00FFFFFFFFFF0000
01FFFFFFFFFFC000
03FFFFFFFFFFE000
07FC007F001FF000
0FF0003E0007F800
1FC0003E0001FC00
1F80003E0000FE00
3F00003E00007E00
3E00003E00003F00
7E00003E00003F00
7C00003E00001F00
7C00003E00001F00
F800003E00000F80
F800003E00000F80
F800003E00000F80
F800003E00000F80
F800003E00000F80
F800003E00000F80
F800003E00000F80
F800003E00000F80
F800003E00000F80
F800003E00000F80
F800003E00000F80
F800003E00000F80
F800003E00000F80
F800003E00000F80
F800003E00000F80
F800003E00000F80
F800003E00000F80
F800003E00000F80
F800003E00000F80
F800003E00000F80
F800003E00000F80
F800003E00000F80
7000001C00000700
ENDCHAR
STARTCHAR 006E
ENCODING 110
SWIDTH 420 0
DWIDTH 42 0
BBX 36 37 3 0
BITMAP
0007FE0000
003FFFC000
00FFFFF000
01FFFFF800
03FFFFFC00
07FC03FE00
0FF000FF00
1FC0003F80
1F80001F80
3F00000FC0
3E000007C0
7E000007E0
7C000003E0
7C000003E0
F8000001F0
F8000001F0
F8000001F0
F8000001F0
F8000001F0
F8000001F0
F8000001F0
F8000001F0
F8000001F0
F8000001F0
F8000001F0
F8000001F0
F8000001F0
F8000001F0
F8000001F0
F8000001F0
F8000001F0
F8000001F0
F8000001F0
F8000001F0
F8000001F0
F8000001F0
70000000E0
ENDCHAR
STARTCHAR 006F
ENCODING 111
SWIDTH 420 0
DWIDTH 42 0
BBX 36 37 3 0
BITMAP
0007FE0000
003FFFC000
00FFFFF000
01FFFFF800
03FFFFFC00
07FC03FE00
0FF000FF00
1FC0003F80
1F80001F80
3F00000FC0
3E000007C0
7E000007E0
7C000003E0
7C000003E0
FC000001F0
F8000001F0
F8000001F0
F8000001F0
F8000001F0
F8000001F0
F8000001F0
F8000001F0
F8000001F0
7C000003E0
7C000003E0
7E000007E0
3E000007C0
3F00000FC0
1F80001F80
1FC0003F80
0FE0007F00
07FC03FE00
03FFFFFC00
01FFFFF800
00FFFFF000
003FFFC000
0007FE0000
ENDCHAR
STARTCHAR 0070
ENCODING 112
SWIDTH 420 0
DWIDTH 42 0
BBX 36 53 3 -16
BITMAP
07FFFC0000
1FFFFF8000
3FFFFFE000
7FFFFFF800
7FFFFFFC00
FC0003FE00
F80000FF00
F800003F80
F800001FC0
F800000FC0
F8000007E0
F8000007E0
F8000003E0
F8000003E0
F8000001F0
F8000001F0
F8000001F0
F8000001F0
F8000001F0
F8000001F0
F8000001F0
F8000001F0
F8000001F0
F8000003E0
F8000003E0
F8000003E0
F8000007E0
F800000FC0
F800001FC0
F800003F80
F800007F00
FC0003FE00
7FFFFFFC00
7FFFFFF800
3FFFFFE000
7FFFFFC000
7FFFFE0000
FC00000000
F800000000
F800000000
F800000000
F800000000
F800000000
F800000000
F800000000
F800000000
F800000000
F800000000
F800000000
F800000000
F800000000
F800000000
7000000000
ENDCHAR
STARTCHAR 0071
ENCODING 113
SWIDTH 420 0
DWIDTH 42 0
BBX 36 53 3 -16
BITMAP
0003FFFE00
003FFFFF80
00FFFFFFC0
01FFFFFFE0
03FFFFFFE0
07FC0003F0
0FF00001F0
1FC00001F0
3F800001F0
3F000001F0
7E000001F0
7E000001F0
7C000001F0
7C000001F0
F8000001F0
F8000001F0
F8000001F0
F8000001F0
F8000001F0
F8000001F0
F8000001F0
F8000001F0
F8000001F0
FC000001F0
7C000001F0
7C000001F0
7E000001F0
3F000001F0
3F800001F0
1FC00001F0
0FE00001F0
07FC0003F0
03FFFFFFE0
01FFFFFFE0
007FFFFFC0
001FFFFFE0
0003FFFFE0
00000003F0
00000001F0
00000001F0
00000001F0
00000001F0
00000001F0
00000001F0
00000001F0
00000001F0
00000001F0
00000001F0
00000001F0
00000001F0
00000001F0
00000001F0
00000000E0
ENDCHAR
STARTCHAR 0072
ENCODING 114
SWIDTH 420 0
DWIDTH 42 0
BBX 37 37 3 0
BITMAP
0007FFFFF0
003FFFFFF0
00FFFFFFF8
01FFFFFFF0
03FFFFFFF0
07FC000000
0FF0000000
1FC0000000
3F80000000
3F00000000
7E00000000
7E00000000
7C00000000
7C00000000
F800000000
F800000000
F800000000
F800000000
F800000000
F800000000
F800000000
F800000000
F800000000
F800000000
F800000000
F800000000
F800000000
F800000000
F800000000
F800000000
F800000000
F800000000
F800000000
F800000000
F800000000
F800000000
7000000000
ENDCHAR
STARTCHAR 0073
ENCODING 115
SWIDTH 420 0
DWIDTH 42 0
BBX 37 37 2 0
BITMAP
003FFFFFF0
01FFFFFFF8
07FFFFFFF8
0FFFFFFFF8
1FFFFFFFF0
3FC0000000
3F00000000
7E00000000
7E00000000
7C00000000
7C00000000
F800000000
F800000000
F800000000
FC00000000
7C00000000
7FFFFFFF00
3FFFFFFFC0
3FFFFFFFE0
1FFFFFFFF0
07FFFFFFF0
00000001F8
00000000F8
00000000F8
00000000F8
00000000F8
00000000F8
00000001F8
00000001F0
00000003F0
00000007E0
0000001FE0
3FFFFFFFC0
7FFFFFFF80
FFFFFFFF00
7FFFFFFE00
7FFFFFF000
ENDCHAR
STARTCHAR 0074
ENCODING 116
SWIDTH 420 0
DWIDTH 42 0
BBX 37 53 2 0
BITMAP
0000700000
0000F80000
0000F80000
0000F80000
0000F80000
0000F80000
0000F80000
0000F80000
0000F80000
0000F80000
0000F80000
0000F80000
0000F80000
0000F80000
0000F80000
0001FC0000
7FFFFFFFF0
FFFFFFFFF8
FFFFFFFFF8
FFFFFFFFF8
7FFFFFFFF0
0001FC0000
0000F80000
0000F80000
0000F80000
0000F80000
0000F80000
0000F80000
0000F80000
0000F80000
0000F80000
0000F80000
0000F80000
0000F80000
0000F80000
0000F80000
0000F80000
0000F80000
0000F80000
0000F80000
0000F80000
0000F80000
0000F80000
0000F80000
0000F80000
0000F80000
0000F80000
0000F80000
0000F80000
0000F80000
0000F80000
0000F80000
0000700000
ENDCHAR
STARTCHAR 0075
ENCODING 117
SWIDTH 420 0
DWIDTH 42 0
BBX 36 37 3 0
BITMAP
70000000E0
F8000001F0
F8000001F0
F8000001F0
F8000001F0
F8000001F0
F8000001F0
F8000001F0
F8000001F0
F8000001F0
F8000001F0
F8000001F0
F8000001F0
F8000001F0
F8000001F0
F8000001F0
F8000001F0
F8000001F0
F8000001F0
F8000001F0
F8000001F0
F8000001F0
F8000001F0
7C000003E0
7C000003E0
7C000007E0
3E000007C0
3F00000FC0
1F80001F80
1FC0003F80
0FE0007F00
07FC03FE00
03FFFFFC00
01FFFFF800
00FFFFF000
003FFFC000
0007FE0000
ENDCHAR
STARTCHAR 0076
ENCODING 118
SWIDTH 420 0
DWIDTH 42 0
BBX 36 37 3 0
BITMAP
70000000E0
F8000001F0
F8000001F0
F8000001F0
F8000001F0
F8000001F0
F8000001F0
F8000001F0
F8000001F0
F8000001F0
FC000003E0
7C000003E0
7C000003E0
7C000003E0
7C000003E0
7E000007E0
3E000007C0
3E000007C0
3F00000FC0
1F00000F80
1F80001F80
0FC0003F00
0FC0003F00
07E0007E00
07F000FE00
03F801FC00
01FC03F800
00FF0FF000
007F9FE000
003FFFC000
001FFF8000
000FFF0000
0007FE0000
0001F80000
0001F80000
0000F00000
0000F00000
ENDCHAR
STARTCHAR 0077
ENCODING 119
SWIDTH 630 0
DWIDTH 63 0
BBX 57 37 3 0
BITMAP
7000001C00000700
F800003E00000F80
F800003E00000F80
F800003E00000F80
F800003E00000F80
F800003E00000F80
F800003E00000F80
F800003E00000F80
F800003E00000F80
F800003E00000F80
F800003E00000F80
F800003E00000F80
F800003E00000F80
F800003E00000F80
F800003E00000F80
F800003E00000F80
F800003E00000F80
F800003E00000F80
F800003E00000F80
F800003E00000F80
F800003E00000F80
F800003E00000F80
F800003E00000F80
7C00003E00001F00
7C00003E00001F00
7C00003E00001F00
3E00003E00003F00
3F00003E00007E00
3F80003E0000FE00
1FC0003E0001FC00
0FE0003E0003F800
07FC007F001FF000
03FFFFFFFFFFE000
01FFFFFFFFFFC000
00FFFFFFFFFF0000
003FFFF7FFFE0000
0007FFC1FFE00000
ENDCHAR
STARTCHAR 0078
ENCODING 120
SWIDTH 420 0
DWIDTH 42 0
BBX 36 37 3 0
BITMAP
70000000E0
F8000001F0
F8000001F0
F8000001F0
F8000001F0
F8000001F0
F8000001F0
7C000003E0
7C000003E0
7E000007E0
3E000007C0
3F00000FC0
1F80001F80
1FC0003F80
0FF0007F00
07FC03FE00
03FFFFFC00
01FFFFF800
00FFFFF000
01FFFFF800
03FFFFFC00
07FC03FE00
0FE000FF00
1FC0003F80
1F80001F80
3F00000FC0
3E000007C0
7E000007E0
7C000003E0
7C000003E0
F8000001F0
F8000001F0
F8000001F0
F8000001F0
F8000001F0
F8000001F0
70000000E0
ENDCHAR
STARTCHAR 0079
ENCODING 121
SWIDTH 420 0
DWIDTH 42 0
BBX 36 53 3 -16
BITMAP
70000000E0
F8000001F0
F8000001F0
F8000001F0
F8000001F0
F8000001F0
F8000001F0
F8000001F0
F8000001F0
F8000001F0
F8000001F0
F8000001F0
F8000001F0
F8000001F0
F8000001F0
F8000001F0
F8000001F0
F8000001F0
F8000001F0
F8000001F0
F8000001F0
F8000001F0
F8000001F0
7C000001F0
7C000001F0
7C000001F0
3E000001F0
3F000001F0
1F800001F0
1FC00001F0
0FE00001F0
07FC0003F0
03FFFFFFE0
01FFFFFFE0
00FFFFFFC0
003FFFFFE0
0007FFFFE0
00000003F0
00000001F0
00000001F0
00000001F0
00000001F0
00000001F0
00000003F0
00000003E0
00000007E0
0000000FC0
0000003FC0
0000FFFF80
0001FFFF00
0001FFFE00
0001FFFC00
0000FFE000
ENDCHAR
STARTCHAR 007A
ENCODING 122
SWIDTH 420 0
DWIDTH 42 0
BBX 37 37 2 0
BITMAP
7FFFFFFF00
7FFFFFFFC0
FFFFFFFFE0
7FFFFFFFF0
3FFFFFFFF8
00000001F8
00000000F8
00000000F8
00000001F8
00000003F8
0000000FF0
0000003FE0
000000FFC0
000001FF80
000007FF00
00001FFC00
00007FF000
0001FFE000
0007FF8000
001FFE0000
007FF80000
00FFE00000
03FF800000
07FE000000
0FF8000000
1FF0000000
3FC0000000
7F00000000
7E00000000
FC00000000
7C00000000
7E00000000
7FFFFFFFF0
3FFFFFFFF8
3FFFFFFFF8
0FFFFFFFF8
03FFFFFFF0
ENDCHAR
STARTCHAR 007B
ENCODING 123
SWIDTH 310 0
DWIDTH 31 0
BBX 26 68 3 0
BITMAP
00001F80
0001FFC0
0007FFC0
000FFFC0
001FFF80
007FE000
007F0000
00FE0000
01FC0000
01F80000
03F00000
03E00000
03E00000
07E00000
07C00000
07C00000
07C00000
07C00000
07C00000
07C00000
07C00000
07C00000
07C00000
07C00000
07C00000
07C00000
07C00000
07C00000
07C00000
07C00000
0FC00000
7FC00000
FF800000
FF800000
FF800000
FF800000
0FC00000
07C00000
07C00000
07C00000
07C00000
07C00000
07C00000
07C00000
07C00000
07C00000
07C00000
07C00000
07C00000
07C00000
07C00000
07C00000
07C00000
07C00000
07E00000
03E00000
03E00000
03F00000
01F80000
01FC0000
00FE0000
007F0000
003FE000
001FFF80
000FFFC0
0007FFC0
0001FFC0
00001F80
ENDCHAR
STARTCHAR 007C
ENCODING 124
SWIDTH 100 0
DWIDTH 10 0
BBX 5 100 3 -16
BITMAP
70
F8
F8
F8
F8
F8
F8
F8
F8
F8
F8
F8
F8
F8
F8
F8
F8
F8
F8
F8
F8
F8
F8
F8
F8
F8
F8
F8
F8
F8
F8
F8
F8
F8
F8
F8
F8
F8
F8
F8
F8
F8
F8
F8
F8
F8
F8
F8
F8
F8
F8
F8
F8
F8
F8
F8
F8
F8
F8
F8
F8
F8
F8
F8
F8
F8
F8
F8
F8
F8
F8
F8
F8
F8
F8
F8
F8
F8
F8
F8
F8
F8
F8
F8
F8
F8
F8
F8
F8
F8
F8
F8
F8
F8
F8
F8
F8
F8
F8
70
ENDCHAR
STARTCHAR 007D
ENCODING 125
SWIDTH 310 0
DWIDTH 31 0
BBX 27 68 2 0
BITMAP
7E000000
FFC00000
FFF00000
FFFC0000
7FFE0000
01FF0000
007F8000
001FC000
000FE000
0007E000
0003F000
0003F000
0001F800
0001F800
0001F800
0001F800
0000F800
0000F800
0000F800
0000F800
0000F800
0000F800
0000F800
0000F800
0000F800
0000F800
0000F800
0000F800
0000F800
0000F800
0000FC00
0000FFC0
00007FC0
00007FE0
00007FC0
00007FC0
0000FE00
0000F800
0000F800
0000F800
0000F800
0000F800
0000F800
0000F800
0000F800
0000F800
0000F800
0000F800
0000F800
0000F800
0000F800
0000F800
0000F800
0000F800
0001F800
0001F000
0001F000
0003F000
0007E000
000FE000
001FC000
003F8000
01FF0000
7FFE0000
FFFC0000
FFF80000
FFE00000
7E000000
ENDCHAR
STARTCHAR 007E
ENCODING 126
SWIDTH 420 0
DWIDTH 42 0
BBX 37 16 2 26
BITMAP
003F000070
01FFC000F8
07FFE000F8
0FFFF000F8
1FFFF800F8
1FE1F800F8
3F80F801F8
3F00F801F0
7E00FC03F0
7C00FC07F0
7C007C1FE0
7C007FFFC0
FC007FFF80
FC003FFF00
78001FFC00
780007F000
ENDCHAR
STARTCHAR 00C6
ENCODING 198
SWIDTH 630 0
DWIDTH 63 0
BBX 57 68 3 0
BITMAP
0007FFC1FFFFFF00
003FFFF7FFFFFF80
00FFFFFFFFFFFF80
01FFFFFFFFFFFF80
03FFFFFFFFFFFF00
07FC007F00000000
0FE0003E00000000
1FC0003E00000000
3F80003E00000000
3F00003E00000000
3E00003E00000000
7C00003E00000000
7C00003E00000000
7C00003E00000000
F800003E00000000
F800003E00000000
F800003E00000000
F800003E00000000
F800003E00000000
F800003E00000000
F800003E00000000
F800003E00000000
F800003E00000000
F800003E00000000
F800003E00000000
F800003E00000000
F800003E00000000
F800003E00000000
F800003E00000000
F800003E00000000
FC00007F00000000
FFFFFFFFFFFC0000
7FFFFFFFFFFE0000
7FFFFFFFFFFE0000
7FFFFFFFFFFE0000
7FFFFFFFFFFC0000
FC00007F00000000
F800003E00000000
F800003E00000000
F800003E00000000
F800003E00000000
F800003E00000000
F800003E00000000
F800003E00000000
F800003E00000000
F800003E00000000
F800003E00000000
F800003E00000000
F800003E00000000
F800003E00000000
F800003E00000000
F800003E00000000
F800003E00000000
F800003E00000000
F800003E00000000
F800003E00000000
F800003E00000000
F800003E00000000
F800003E00000000
F800003E00000000
F800003E00000000
F800003E00000000
F800003F00000000
F800001FFFFFFF00
F800001FFFFFFF80
F800000FFFFFFF80
F8000007FFFFFF80
70000001FFFFFF00
ENDCHAR
STARTCHAR 00E6
ENCODING 230
SWIDTH 630 0
DWIDTH 63 0
BBX 57 37 3 0
BITMAP
001FFC001FFF0000
003FFF80FFFFC000
003FFFC1FFFFF000
003FFFE3FFFFF800
001FFFF7FFFFFC00
000007FFF001FE00
000001FFC0007F00
000000FF80003F00
0000007F00001F00
0000007F00001F80
0000003E00000F80
0000003E00000F80
0000003E00000F80
0000003E00000F80
0000003E00000F80
0000007F00001F80
07FFFFFFFFFFFF00
1FFFFFFFFFFFFF00
3FFFFFFFFFFFFE00
7FFFFFFFFFFFFC00
FFFFFFFFFFFFF000
FC00007F00000000
F800003E00000000
F800003E00000000
F800003E00000000
F800003E00000000
F800003E00000000
FC00003F00000000
FC00003F00000000
7E00003F80000000
7F00003FC0000000
3FC0007FF0000000
1FFFFFFFFFFC0000
1FFFFFFFFFFE0000
07FFFFF9FFFE0000
03FFFFF0FFFE0000
007FFFC01FFC0000
ENDCHAR
STARTCHAR E000
ENCODING 57344
SWIDTH 0 0
DWIDTH 0 0
BBX 0 0 0 0
BITMAP
ENDCHAR
STARTCHAR E001
ENCODING 57345
SWIDTH 500 0
DWIDTH 50 0
BBX 0 0 0 0
BITMAP
ENDCHAR
ENDFONT
